<svg width="50" height="50" viewBox="0 0 50 50" fill="none" xmlns="http://www.w3.org/2000/svg">
<path d="M22.3951 46.8751H27.6451C29.6451 46.8751 30.9368 45.4584 30.5618 43.7292L29.7076 39.9585H20.3326L19.4785 43.7292C19.1035 45.3542 20.5201 46.8751 22.3951 46.8751Z" stroke="white" stroke-width="1.5" stroke-linecap="round" stroke-linejoin="round"/>
<path d="M29.7069 39.9376L33.311 36.7292C35.3319 34.9376 35.4152 33.6874 33.811 31.6666L27.4569 23.6042C26.1235 21.9167 23.936 21.9167 22.6027 23.6042L16.2485 31.6666C14.6444 33.6874 14.6444 35.0001 16.7485 36.7292L20.3527 39.9376" stroke="white" stroke-width="1.5" stroke-linecap="round" stroke-linejoin="round"/>
<path d="M25.0195 23.1667V28.4376" stroke="white" stroke-width="1.5" stroke-linecap="round" stroke-linejoin="round"/>
<path d="M23.2305 10.8124L21.6055 9.18738C20.6263 8.20821 20.6263 6.62498 21.6055 5.64581L23.2305 4.02075C24.2096 3.04159 25.793 3.04159 26.7721 4.02075L28.3971 5.64581C29.3763 6.62498 29.3763 8.20821 28.3971 9.18738L26.7721 10.8124C25.793 11.7916 24.2096 11.7916 23.2305 10.8124Z" stroke="white" stroke-width="1.5" stroke-linecap="round" stroke-linejoin="round"/>
<path d="M40.5195 20.4375H42.8112C44.1862 20.4375 45.3112 21.5625 45.3112 22.9375V25.2291C45.3112 26.6041 44.1862 27.7293 42.8112 27.7293H40.5195C39.1445 27.7293 38.0195 26.6041 38.0195 25.2291V22.9375C38.0195 21.5625 39.1445 20.4375 40.5195 20.4375Z" stroke="white" stroke-width="1.5" stroke-linecap="round" stroke-linejoin="round"/>
<path d="M9.47917 20.4375H7.18749C5.81249 20.4375 4.6875 21.5625 4.6875 22.9375V25.2291C4.6875 26.6041 5.81249 27.7293 7.18749 27.7293H9.47917C10.8542 27.7293 11.9792 26.6041 11.9792 25.2291V22.9375C11.9792 21.5625 10.8542 20.4375 9.47917 20.4375Z" stroke="white" stroke-width="1.5" stroke-linecap="round" stroke-linejoin="round"/>
<path d="M38.6237 21.0416L27.582 10" stroke="white" stroke-width="1.5" stroke-linecap="round" stroke-linejoin="round"/>
<path d="M11.375 21.0416L22.4167 10" stroke="white" stroke-width="1.5" stroke-linecap="round" stroke-linejoin="round"/>
</svg>
