<svg width="24" height="24" viewBox="0 0 24 24" fill="none" xmlns="http://www.w3.org/2000/svg">
<path d="M22 12C22 6.48 17.52 2 12 2C6.48 2 2 6.48 2 12C2 17.52 6.48 22 12 22" stroke="#14A67E" strokeWidth="1.2" strokeLinecap="round" strokeLinejoin="round"/>
<path d="M7.99961 3H8.99961C7.04961 8.84 7.04961 15.16 8.99961 21H7.99961" stroke="#14A67E" strokeWidth="1.2" strokeLinecap="round" strokeLinejoin="round"/>
<path d="M15 3C15.97 5.92 16.46 8.96 16.46 12" stroke="#14A67E" strokeWidth="1.2" strokeLinecap="round" strokeLinejoin="round"/>
<path d="M3 16V15C5.92 15.97 8.96 16.46 12 16.46" stroke="#14A67E" strokeWidth="1.2" strokeLinecap="round" strokeLinejoin="round"/>
<path d="M3 8.99961C8.84 7.04961 15.16 7.04961 21 8.99961" stroke="#14A67E" strokeWidth="1.2" strokeLinecap="round" strokeLinejoin="round"/>
<path d="M19.21 15.74L15.67 19.2801C15.53 19.4201 15.4 19.68 15.37 19.87L15.18 21.22C15.11 21.71 15.45 22.05 15.94 21.98L17.29 21.79C17.48 21.76 17.75 21.63 17.88 21.49L21.42 17.95C22.03 17.34 22.32 16.63 21.42 15.73C20.53 14.84 19.82 15.13 19.21 15.74Z" stroke="#14A67E" strokeWidth="1.2" stroke-miterlimit="10" strokeLinecap="round" strokeLinejoin="round"/>
<path d="M18.7002 16.25C19.0002 17.33 19.8402 18.17 20.9202 18.47" stroke="#14A67E" strokeWidth="1.2" stroke-miterlimit="10" strokeLinecap="round" strokeLinejoin="round"/>
</svg>
