<svg width="471" height="449" viewBox="0 0 471 449" fill="none" xmlns="http://www.w3.org/2000/svg">
<g opacity="0.15">
<path opacity="0.1" d="M-402.053 223.987C-418.873 210.719 -435.443 196.757 -451.762 182.102C-543.493 99.7 -581.353 20.2729 -567.505 -60.7128C-555.504 -130.892 -506.738 -191.501 -463.686 -244.972C-434.97 -280.67 -407.853 -314.353 -396.481 -345.441C-358.658 -448.828 -374.088 -490.685 -383.308 -515.691C-388.642 -530.175 -392.176 -539.737 -381.337 -552.102C-370.707 -564.229 -311.731 -543.843 -195.73 -487.948C-145.564 -463.779 -118.952 -429.43 -97.5697 -401.839C-86.8545 -388.011 -77.568 -376.045 -67.4433 -368.099C-39.5362 -346.24 -29.5163 -343.227 -7.57159 -336.735C10.7252 -331.299 38.3942 -323.106 92.3226 -298.861C139.727 -277.571 203.17 -230.915 257.794 -177.092C288.901 -146.47 316.265 -114.668 339.124 -82.5536C364.717 -46.618 384.042 -11.0911 396.52 23.0197C419.731 86.2134 419.379 143.543 395.462 193.459C371.918 242.587 336.934 284.244 291.482 317.271C246.326 350.023 193.16 372.653 133.45 384.495C46.5282 401.707 -50.2895 394.484 -146.574 363.586C-197.883 347.124 -249.163 323.953 -298.968 294.708C-334.912 273.518 -369.355 249.889 -402.053 223.987ZM-154.956 -459.958C-167.868 -470.138 -181.868 -478.862 -196.702 -485.971C-249.459 -511.395 -289.672 -529.12 -319.646 -540.145C-362.887 -556.093 -376.165 -554.649 -379.651 -550.6C-389.632 -539.195 -386.642 -531.107 -381.213 -516.385C-371.888 -491.094 -356.287 -448.771 -394.414 -344.624C-405.91 -313.26 -433.141 -279.368 -461.972 -243.537C-504.833 -190.265 -553.408 -129.894 -565.304 -60.2851C-579.02 19.9023 -541.388 98.6735 -450.266 180.534C-401.548 224.263 -350.21 262.061 -297.825 292.817C-248.144 321.976 -197.016 345.09 -145.859 361.495C-49.9561 392.26 46.4806 399.512 133.031 382.328C192.426 370.562 245.297 348.065 290.187 315.446C335.343 282.638 370.089 241.256 393.481 192.509C417.112 143.153 417.474 86.394 394.481 23.7705C382.042 -10.1597 362.812 -45.506 337.334 -81.2895C314.541 -113.29 287.263 -144.968 256.251 -175.534C201.76 -229.176 138.603 -275.67 91.4177 -296.865C37.6132 -321.044 10.0394 -329.179 -8.20023 -334.616C-30.4212 -341.202 -40.5839 -344.206 -68.8053 -366.37L-68.9482 -366.484C-79.2634 -374.629 -88.5594 -386.614 -99.3127 -400.49C-113.638 -418.985 -130.334 -440.541 -154.956 -459.958Z" fill="#1E1E1E"/>
<path opacity="0.07" d="M-440.101 259.544C-458.888 244.726 -477.395 229.132 -495.622 212.764C-598.08 120.734 -640.367 32.0254 -624.899 -58.4237C-611.495 -136.804 -557.026 -204.495 -508.941 -264.214C-476.867 -304.083 -446.58 -341.702 -433.877 -376.423C-391.633 -491.892 -408.867 -538.639 -419.165 -566.567C-425.122 -582.744 -429.069 -593.423 -416.962 -607.232C-405.09 -620.777 -339.218 -598.008 -209.654 -535.582C-153.622 -508.589 -123.898 -470.227 -100.015 -439.412C-88.0474 -423.967 -77.675 -410.603 -66.3665 -401.729C-35.1962 -377.315 -24.0048 -373.95 0.50589 -366.7C20.9421 -360.628 51.8464 -351.478 112.08 -324.4C165.027 -300.623 235.889 -248.514 296.9 -188.402C331.644 -154.201 362.208 -118.684 387.74 -82.8166C416.325 -42.6818 437.91 -3.0036 451.847 35.0931C477.772 105.671 477.379 169.7 450.666 225.449C424.368 280.317 385.293 326.842 334.527 363.729C284.091 400.307 224.708 425.581 158.017 438.807C60.9315 458.031 -47.2069 449.964 -154.75 415.455C-212.058 397.07 -269.335 371.191 -324.962 338.529C-365.11 314.863 -403.58 288.472 -440.101 259.544ZM-164.111 -504.321C-178.533 -515.691 -194.171 -525.434 -210.739 -533.374C-269.664 -561.769 -314.579 -581.566 -348.058 -593.879C-396.356 -611.691 -411.186 -610.077 -415.079 -605.555C-426.228 -592.817 -422.888 -583.784 -416.824 -567.342C-406.409 -539.096 -388.984 -491.828 -431.569 -375.51C-444.409 -340.481 -474.824 -302.629 -507.026 -262.611C-554.899 -203.115 -609.154 -135.689 -622.441 -57.946C-637.76 31.6115 -595.729 119.587 -493.952 211.013C-439.537 259.852 -382.196 302.067 -323.686 336.417C-268.196 368.983 -211.09 394.798 -153.952 413.12C-46.8345 447.48 60.8783 455.579 157.549 436.387C223.889 423.246 282.942 398.121 333.081 361.691C383.517 325.048 422.325 278.831 448.453 224.388C474.847 169.265 475.251 105.873 449.57 35.9317C435.676 -1.96332 414.198 -41.4399 385.74 -81.4048C360.283 -117.145 329.815 -152.524 295.176 -186.662C234.315 -246.572 163.772 -298.5 111.07 -322.171C50.974 -349.175 20.1761 -358.261 -0.196228 -364.333C-25.0154 -371.689 -36.3665 -375.043 -67.8878 -399.797L-68.0474 -399.924C-79.5686 -409.021 -89.9516 -422.407 -101.962 -437.904C-117.962 -458.561 -136.611 -482.635 -164.111 -504.321Z" fill="#1E1E1E"/>
<path opacity="0.2" d="M-368.64 199.39C-382.241 188.663 -395.665 177.435 -408.91 165.707C-492.403 92.0965 -528.225 20.8812 -518.443 -51.9405C-509.871 -115.239 -468.277 -170.668 -431.541 -219.567C-405.948 -253.63 -381.784 -285.802 -372.488 -315.826C-341.39 -411.097 -355.868 -451.661 -364.497 -475.897C-369.726 -490.543 -373.183 -500.218 -362.83 -512.364C-357.115 -519.312 -337.647 -517.791 -305.035 -507.812C-275.718 -498.83 -236.867 -483.348 -192.74 -463.037C-146.536 -441.985 -121.457 -411.714 -101.303 -387.355C-91.5691 -375.589 -83.1589 -365.391 -73.9962 -358.186C-45.0414 -335.215 -36.0311 -331.831 -9.33362 -321.747C8.60123 -314.98 33.1652 -305.714 76.2831 -285.916C120.468 -265.653 179.568 -222.057 230.515 -172.131C259.661 -143.618 285.272 -114.003 306.645 -84.2169C330.609 -50.7999 348.687 -17.8582 360.326 13.7339C381.385 70.7595 381.461 122.463 360.555 167.541C339.42 212.829 307.769 251.34 266.499 282.02C225.477 312.491 177.073 333.666 122.678 344.938C44.0042 361.228 -43.7555 355.393 -131.125 328.135C-177.71 313.593 -224.323 292.969 -269.651 266.785C-304.231 246.729 -337.314 224.205 -368.64 199.39ZM-150.412 -434.876C-163.689 -445.352 -178.193 -454.176 -193.606 -461.156C-286.967 -504.153 -351.162 -523.247 -361.259 -511.034C-370.859 -499.79 -367.735 -491.075 -362.573 -476.581C-353.839 -452.098 -339.209 -411.125 -370.431 -315.246C-379.87 -284.899 -404.138 -252.585 -429.836 -218.379C-466.41 -169.679 -507.89 -114.478 -516.348 -51.7504C-526.073 20.3869 -490.479 91.0035 -407.539 164.12C-363.049 203.515 -316.312 237.445 -268.632 264.96C-223.428 291.049 -176.957 311.635 -130.525 326.129C-43.5174 353.349 43.9185 359.138 122.211 342.923C176.358 331.708 224.486 310.609 265.261 280.366C306.264 249.896 337.696 211.651 358.678 166.676C379.375 122.12 379.28 70.902 358.421 14.4468C343.001 -27.2769 308.046 -93.2554 229.048 -170.658C178.254 -220.432 119.353 -263.876 75.4069 -284.044C32.3461 -303.803 7.7821 -313.06 -10.0861 -319.827C-36.2787 -329.712 -46.0891 -333.428 -75.3011 -356.571C-84.6162 -363.946 -93.0931 -374.182 -102.922 -386.034C-115.485 -401.231 -130.001 -418.767 -150.412 -434.876Z" fill="#1E1E1E"/>
<path opacity="0.3" d="M-334.809 175.212C-345.311 166.937 -355.728 158.303 -366.059 149.312C-441.361 84.4174 -475.087 21.4328 -469.144 -43.4053C-463.972 -99.851 -429.379 -150.072 -398.852 -194.38C-376.555 -226.752 -355.496 -257.327 -348.296 -286.296C-324.027 -373.26 -337.59 -412.465 -345.686 -435.893C-350.848 -450.805 -354.258 -460.604 -344.362 -472.617C-331.38 -489.364 -255.116 -466.478 -189.749 -438.117C-147.24 -420.125 -123.619 -393.761 -104.627 -372.538C-96.0551 -362.929 -88.5878 -354.632 -80.5871 -348.245C-47.832 -321.965 -40.5838 -318.715 -0.342285 -300.676C14.8018 -293.88 33.6606 -285.422 60.2152 -272.933C87.3794 -260.169 121.173 -237.767 155.328 -209.872C193.788 -178.508 229.353 -142.839 258.194 -106.827C292.302 -64.2196 315.961 -22.6195 328.514 16.8042C343.134 62.7382 342.201 104.757 325.742 141.719C307.017 183.167 278.71 218.551 241.611 246.874C204.723 275.035 161.081 294.756 111.896 305.486C41.4708 320.845 -37.2407 316.445 -115.743 292.751C-191.263 269.912 -264.803 230.45 -334.809 175.212ZM-145.059 -409.5C-158.922 -420.459 -174.212 -429.488 -190.511 -436.34C-268.365 -470.118 -332.428 -484.868 -342.847 -471.41C-352.067 -460.262 -348.981 -451.328 -343.867 -436.52C-335.685 -412.883 -321.96 -373.317 -346.429 -285.811C-353.706 -256.519 -374.86 -225.801 -397.262 -193.287C-427.655 -149.178 -462.096 -99.1953 -467.22 -43.2247C-473.097 20.891 -439.599 83.4005 -364.792 147.811C-285.738 216.565 -201.759 264.713 -115.19 290.812C-37.0216 314.411 41.3565 318.802 111.496 303.509C160.395 292.846 203.789 273.248 240.449 245.258C277.262 217.22 305.369 182.055 323.961 140.892C340.21 104.386 341.106 62.8143 326.647 17.3364C314.17 -21.8687 290.625 -63.2502 256.67 -105.677C227.934 -141.565 192.464 -177.092 154.109 -208.418C120.049 -236.218 86.4174 -258.534 59.3866 -271.222C32.851 -283.711 14.0018 -292.132 -1.14236 -298.956C-41.5648 -317.08 -48.8416 -320.35 -81.7968 -346.772C-89.9213 -353.263 -97.4076 -361.617 -106.075 -371.283C-116.743 -383.192 -128.886 -396.754 -145.059 -409.5Z" fill="#1E1E1E"/>
<path opacity="0.35" d="M-301.635 150.624C-308.88 144.921 -316.081 139.019 -323.237 132.918C-390.423 76.6619 -421.998 21.7178 -419.769 -35.0226C-417.864 -84.6538 -391.347 -127.699 -365.745 -169.337C-346.944 -199.921 -329.18 -228.814 -324.227 -256.728C-306.569 -335.281 -318.76 -371.587 -326.828 -395.614C-332.152 -411.467 -335.4 -421.038 -325.875 -432.871C-314.446 -448.515 -253.364 -439.885 -186.768 -413.197C-147.47 -398.161 -125.106 -375.484 -107.133 -357.264C-100.256 -350.288 -93.7983 -343.702 -87.131 -338.37L-83.7974 -335.652C-45.4418 -304.459 -42.3083 -301.911 44.1848 -260.017C68.4916 -248.269 100.028 -227.246 130.697 -202.354C165.938 -173.728 198.645 -141.423 225.21 -108.937C256.784 -70.3309 278.9 -32.7131 290.929 2.88037C304.997 44.4139 304.969 82.4025 290.844 115.81C274.538 153.437 249.574 185.695 216.647 211.689C183.882 237.54 144.993 255.817 101.066 266.006C38.87 280.424 -30.793 277.411 -100.389 257.3C-169.595 237.293 -237.182 201.453 -301.635 150.624ZM-138.25 -383.591C-153.105 -395.37 -169.691 -404.792 -187.425 -411.524C-252.193 -437.48 -313.674 -446.566 -324.446 -431.787C-333.314 -420.686 -330.218 -411.467 -325.085 -396.184C-317.465 -373.44 -304.664 -335.357 -322.418 -256.377C-327.428 -228.158 -345.277 -199.133 -364.174 -168.396C-389.652 -126.957 -416.007 -84.1121 -417.93 -34.9466C-420.14 21.2046 -388.776 75.6639 -322.037 131.549C-251.374 191.663 -176.634 233.378 -99.875 255.579C-30.5739 275.605 38.7748 278.608 100.666 264.257C144.336 254.125 182.987 235.963 215.533 210.273C248.231 184.478 273.014 152.449 289.196 115.107C303.15 82.1173 303.159 44.5565 289.196 3.46017C277.205 -31.9337 255.193 -69.3615 223.762 -107.797C197.274 -140.197 164.709 -172.426 129.468 -200.938C98.9132 -225.744 67.5011 -246.682 43.3085 -258.372C-43.3654 -300.353 -46.5181 -302.919 -85.0166 -334.235L-88.2835 -336.973C-94.9508 -342.371 -101.504 -348.996 -108.419 -355.981C-116.924 -364.63 -126.382 -374.258 -138.25 -383.591Z" fill="#1E1E1E"/>
<path opacity="0.4" d="M-268.506 126.094C-272.469 122.97 -276.415 119.78 -280.346 116.523C-412.89 9.56201 -369.877 -72.3171 -331.94 -144.549C-316.872 -173.233 -302.643 -200.32 -300.071 -227.151C-288.842 -297.102 -300.243 -331.897 -307.786 -354.917C-313.187 -371.397 -316.444 -381.338 -307.386 -393.124C-302.062 -400.898 -286.108 -405.061 -263.639 -404.529C-239.78 -403.949 -211.416 -398.18 -183.785 -388.296C-146.572 -376.026 -125.942 -357.302 -107.741 -340.774C-102.902 -336.393 -98.3493 -332.22 -93.7203 -328.476C-86.7864 -322.773 -80.8526 -317.631 -75.6236 -313.117C-51.431 -292.208 -36.8393 -279.662 28.0995 -247.091C69.5506 -226.362 138.585 -174.934 192.209 -111.018C221.23 -76.4324 241.813 -42.7874 253.385 -11.0146C266.901 26.0519 267.777 60.0676 255.976 89.9205C242.136 123.697 220.055 153.486 191.742 176.58C163.111 200.141 128.965 216.983 90.2762 226.639C36.3097 240.107 -24.2954 238.481 -84.9767 221.887C-147.953 204.76 -209.616 172.55 -268.506 126.094ZM-129.019 -356.96C-145.499 -370.129 -164.235 -380.209 -184.318 -386.708C-243.704 -407.941 -296.128 -406.62 -306.043 -392.154C-314.615 -381.025 -311.424 -371.387 -306.195 -355.43C-298.576 -332.258 -287.146 -297.245 -298.414 -226.942C-301.014 -199.836 -315.32 -172.606 -330.464 -143.78C-349.675 -107.198 -369.515 -69.3613 -368.458 -26.9438C-367.21 21.3188 -338.046 67.8231 -279.288 115.24C-217.035 166.715 -151.525 202.071 -84.5862 220.319C-24.1525 236.799 36.1669 238.377 89.8476 225.071C128.298 215.481 162.235 198.744 190.666 175.345C218.79 152.445 240.727 122.89 254.481 89.3692C269.577 51.0005 270.863 -14.6833 190.942 -109.935C137.461 -173.67 68.6649 -224.936 27.3661 -245.58C-37.7632 -278.255 -52.4216 -290.896 -76.6999 -311.843C-81.9289 -316.348 -87.8627 -321.462 -94.7966 -327.174C-99.4542 -330.975 -104.026 -335.138 -108.874 -339.529C-115.094 -345.194 -121.618 -351.134 -129.019 -356.96Z" fill="#1E1E1E"/>
<path opacity="0.45" d="M-241.821 96.773C-290.263 58.5469 -315.961 20.5869 -320.304 -19.1789C-324.257 -55.2951 -310.598 -88.3129 -297.388 -120.219C-286.396 -146.793 -275.976 -171.903 -275.919 -197.574C-270.824 -258.601 -281.491 -291.666 -288.558 -313.526C-294.187 -330.975 -297.588 -341.506 -288.873 -353.377C-278.091 -370.114 -229.553 -377.964 -180.778 -363.356C-142.117 -353.367 -121.963 -336.602 -102.476 -320.378L-100.257 -318.544C-90.9036 -310.674 -83.4934 -303.565 -76.3214 -296.684C-57.0912 -278.246 -38.9278 -260.825 12.0861 -234.108C49.2892 -214.7 111.218 -168.529 159.26 -113.062C199.75 -66.301 243.353 2.38623 221.17 64.0783C198.311 124.126 146.64 169.072 79.4727 187.415C33.7546 199.904 -17.8403 199.618 -69.6542 186.607C-126.316 172.351 -182.111 143.838 -235.535 101.649L-237.44 100.147C-238.964 98.9938 -240.424 97.8692 -241.821 96.773ZM-115.296 -328.866C-131.564 -341.706 -150.537 -353.957 -181.216 -361.893C-233.363 -377.508 -278.367 -366.959 -287.644 -352.512C-295.921 -341.24 -292.606 -330.994 -287.13 -314.001C-280.024 -292.008 -269.3 -258.781 -274.414 -197.507C-274.414 -171.599 -284.891 -146.346 -295.969 -119.572C-309.103 -87.8376 -322.695 -55.029 -318.828 -19.274C-314.399 21.1856 -287.501 59.849 -236.592 98.9685L-234.687 100.47C-181.416 142.498 -125.821 170.973 -69.3684 185.153C-17.8022 198.098 33.4974 198.383 78.987 185.961C112.228 176.884 141.43 161.563 165.766 140.417C189.846 119.668 208.364 93.2582 219.646 63.5746C241.553 2.58585 198.264 -65.5882 158.041 -112.035C110.132 -167.36 48.4034 -213.379 11.3622 -232.739C-39.8421 -259.551 -58.0818 -277.048 -77.3882 -295.563C-84.5411 -302.425 -91.9418 -309.515 -101.257 -317.346L-103.524 -319.219C-107.334 -322.431 -111.239 -325.663 -115.296 -328.866Z" fill="#1E1E1E"/>
<path d="M-207.789 73.8678C-243.231 45.9063 -263.718 17.7357 -270.28 -11.9366C-276.843 -41.6088 -269.233 -69.4848 -261.899 -96.5719C-255.622 -119.715 -249.145 -143.647 -251.822 -168.006C-252.365 -219.547 -262.385 -250.484 -268.966 -270.946C-275.129 -289.955 -278.853 -301.484 -270.366 -313.64C-260.68 -329.797 -219.724 -347.532 -177.815 -338.446C-147.07 -333.637 -125.83 -324.712 -106.829 -308.64C-96.7991 -300.03 -88.9604 -291.533 -80.6549 -282.523C-63.101 -263.514 -44.9471 -243.821 -3.96271 -221.163C29.1449 -202.944 84.0352 -161.999 126.248 -115.143C162.832 -74.5411 202.941 -14.9874 186.253 38.1888C168.223 90.8614 125.296 131.007 68.5768 148.353C31.0307 159.824 -11.5062 160.87 -54.4336 151.356C-101.923 140.835 -149.089 118.091 -194.626 83.7427C-199.224 80.4543 -203.611 77.1626 -207.789 73.8678ZM-111.191 -310.37C-129.126 -324.522 -149.423 -332.582 -178.101 -337.077C-219.381 -346.04 -259.641 -328.732 -269.242 -312.879C-277.357 -301.256 -273.919 -290.639 -267.68 -271.374C-261.013 -250.826 -250.965 -219.776 -250.422 -168.082C-247.726 -143.532 -254.231 -119.477 -260.546 -96.2108C-267.833 -69.2852 -275.376 -41.4473 -268.918 -12.2407C-261.661 20.5775 -237.087 51.5994 -193.807 82.6212C-148.413 116.837 -101.419 139.514 -54.1479 149.987C-11.4491 159.492 30.8402 158.427 68.1577 147.022C124.477 129.8 167.042 89.9966 184.91 37.7231C201.407 -14.8069 161.547 -73.9043 125.21 -114.24C83.1018 -160.935 28.3638 -201.775 -4.66753 -219.975C-45.852 -242.738 -64.082 -262.497 -81.7121 -281.601C-89.989 -290.573 -97.8087 -299.051 -107.772 -307.604C-108.905 -308.536 -110.038 -309.467 -111.191 -310.37Z" fill="#1E1E1E" fillOpacity="0.5"/>
<path d="M-174.69 51.0956C-231.78 6.0549 -228.694 -33.1692 -225.456 -74.4271C-223.856 -94.7852 -222.199 -115.828 -227.675 -138.429C-232.923 -179.44 -241.962 -206.318 -248.563 -225.934C-256.182 -248.574 -260.373 -261.043 -251.925 -273.893C-246.801 -282.903 -235.438 -293.339 -222.284 -301.075C-206.397 -310.437 -189.567 -314.856 -174.89 -313.526C-149.773 -313.526 -129.267 -312.452 -113.427 -298.737C-103.512 -289.993 -95.2354 -279.824 -86.4823 -269.065C-70.6714 -249.638 -52.7556 -227.617 -20.0386 -208.237C2.65857 -194.865 52.0628 -160.65 93.3043 -117.234C114.744 -94.6427 130.708 -72.9254 140.766 -52.6814C152.643 -28.7687 156.233 -6.90891 151.414 12.2897C138.318 57.72 104.181 93.1898 57.7585 109.623C28.375 120.077 -5.1516 122.32 -39.2021 116.276C-76.8624 109.566 -114.723 93.1043 -151.735 67.3668C-160.317 61.8448 -167.927 56.4274 -174.69 51.0956ZM-116.037 -299.25C-131.277 -311.292 -150.983 -312.271 -174.947 -312.262C-208.493 -315.303 -242.181 -288.501 -250.849 -273.237C-258.973 -260.882 -254.849 -248.602 -247.363 -226.334C-240.753 -206.669 -231.685 -179.763 -226.408 -138.657C-220.894 -115.923 -222.599 -94.7852 -224.161 -74.3321C-225.999 -51.0182 -227.723 -28.9968 -219.017 -6.09158C-209.217 19.7315 -187.586 42.7318 -151.031 66.3118C-114.151 91.9733 -76.4624 108.34 -38.9926 115.021C-5.1516 121.056 28.156 118.823 57.3299 108.454C103.362 92.1539 137.203 56.9882 150.185 11.976C154.948 -6.88992 151.366 -28.4646 139.623 -52.1017C129.622 -72.2316 113.725 -93.8443 92.3805 -116.341C51.2722 -159.661 1.98233 -193.791 -20.6577 -207.126C-53.5652 -226.628 -71.5572 -248.745 -87.4347 -268.257C-96.1593 -278.978 -104.398 -289.109 -114.237 -297.777C-114.847 -298.29 -115.437 -298.775 -116.037 -299.25Z" fill="#1E1E1E" fillOpacity="0.55"/>
<path opacity="0.6" d="M-143.524 28.7888C-178.003 1.58762 -183.118 -24.6441 -189.242 -56.0937C-192.442 -72.5075 -195.747 -89.4916 -203.529 -108.871C-211.339 -136.88 -219.197 -157.884 -225.512 -174.764C-236.332 -203.714 -242.304 -219.662 -233.436 -234.156C-224.426 -251.016 -196.29 -285.479 -172.022 -288.587C-170.383 -289.033 -168.745 -289.537 -167.107 -289.955C-149.963 -294.774 -132.218 -299.745 -119.998 -288.824C-110.569 -280.271 -101.968 -268.248 -92.8625 -255.559C-78.128 -235.03 -61.4313 -211.764 -36.0958 -195.274C-8.6078 -177.492 127.928 -85.2337 116.498 -13.5812C108.507 24.8445 83.1619 55.8759 46.9683 71.5865C25.3665 80.9577 1.45019 84.2936 -24.1044 81.4994C-51.9639 78.458 -80.4901 68.1935 -108.873 50.9717C-121.051 44.6015 -132.645 37.1788 -143.524 28.7888ZM-121.884 -288.929C-133.618 -298.186 -150.458 -293.453 -166.793 -288.872C-168.45 -288.403 -170.107 -287.94 -171.764 -287.484H-171.841C-195.652 -284.443 -223.512 -250.342 -232.446 -233.614C-241.018 -219.557 -235.151 -203.79 -224.445 -175.172C-218.13 -158.283 -210.263 -137.251 -202.453 -109.251C-194.633 -89.8243 -191.318 -72.8022 -188.109 -56.3313C-180.394 -16.7556 -174.298 14.5039 -108.331 49.9738C-80.0424 67.0815 -51.6781 77.3365 -23.9805 80.3874C1.374 83.1532 25.0998 79.8456 46.5016 70.5505C82.3618 55.0015 107.459 24.2553 115.384 -13.7807C119.927 -42.2935 101.097 -77.5543 59.4837 -118.47C22.8234 -154.482 -19.9992 -183.498 -36.7149 -194.305C-62.2218 -210.918 -78.9852 -234.27 -93.7769 -254.885C-102.854 -267.516 -111.416 -279.453 -120.76 -287.978C-121.122 -288.311 -121.503 -288.634 -121.884 -288.929Z" fill="#1E1E1E"/>
<path opacity="0.6" d="M-146.357 9.58734C-177.047 -14.6709 -181.599 -38.0646 -187.05 -66.1115C-189.899 -80.7495 -192.841 -95.8961 -199.767 -113.179C-206.719 -138.157 -213.713 -156.889 -219.333 -171.942C-228.964 -197.76 -234.28 -211.983 -226.387 -224.909C-218.367 -239.945 -193.324 -270.679 -171.723 -273.451C-170.264 -273.849 -168.806 -274.298 -167.348 -274.671C-152.088 -278.969 -136.294 -283.402 -125.417 -273.663C-117.024 -266.034 -109.369 -255.312 -101.264 -243.997C-88.1494 -225.689 -73.2879 -204.939 -50.7372 -190.234C-26.2705 -174.375 95.2575 -92.0989 85.0842 -28.1985C77.9714 6.06979 55.4122 33.7439 23.1969 47.7547C3.96947 56.112 -17.3181 59.087 -40.0638 56.5951C-64.8611 53.8828 -90.2518 44.7287 -115.515 29.3703C-126.354 23.6893 -136.674 17.0696 -146.357 9.58734ZM-127.096 -273.756C-137.541 -282.011 -152.529 -277.79 -167.068 -273.705C-168.544 -273.287 -170.019 -272.874 -171.494 -272.468H-171.562C-192.756 -269.755 -217.553 -239.343 -225.505 -224.426C-233.135 -211.89 -227.913 -197.828 -218.384 -172.307C-212.763 -157.245 -205.761 -138.488 -198.809 -113.518C-191.849 -96.1927 -188.898 -81.0123 -186.042 -66.3234C-179.175 -31.0295 -173.749 -3.15201 -115.032 28.4803C-89.8534 43.7371 -64.6068 52.8826 -39.9536 55.6034C-17.3859 58.0699 3.7321 55.1203 22.7815 46.8307C54.7001 32.9641 77.0389 5.54431 84.0923 -28.3765C88.1362 -53.8044 71.3758 -85.2503 34.3367 -121.739C1.70593 -153.855 -36.4099 -179.732 -51.2883 -189.369C-73.9916 -204.185 -88.9124 -225.011 -102.078 -243.395C-110.158 -254.66 -117.779 -265.305 -126.096 -272.908C-126.418 -273.205 -126.757 -273.493 -127.096 -273.756Z" fill="#1E1E1E"/>
</g>
</svg>
