<svg width="24" height="24" viewBox="0 0 24 24" fill="none" xmlns="http://www.w3.org/2000/svg">
<path d="M10.7513 22.4996H13.2713C14.2313 22.4996 14.8513 21.8196 14.6713 20.9896L14.2613 19.1797H9.76131L9.3513 20.9896C9.1713 21.7696 9.8513 22.4996 10.7513 22.4996Z" stroke="#666666" strokeWidth="1.5" strokeLinecap="round" strokeLinejoin="round"/>
<path d="M14.2605 19.1702L15.9905 17.6301C16.9605 16.7701 17.0005 16.1701 16.2305 15.2001L13.1805 11.3302C12.5405 10.5202 11.4905 10.5202 10.8505 11.3302L7.80054 15.2001C7.03054 16.1701 7.03054 16.8001 8.04054 17.6301L9.77054 19.1702" stroke="#666666" strokeWidth="1.5" strokeLinecap="round" strokeLinejoin="round"/>
<path d="M12.0098 11.1201V13.6501" stroke="#666666" strokeWidth="1.5" strokeLinecap="round" strokeLinejoin="round"/>
<path d="M11.1501 5.18966L10.3701 4.40963C9.90008 3.93963 9.90008 3.17968 10.3701 2.70968L11.1501 1.92965C11.6201 1.45965 12.3801 1.45965 12.8501 1.92965L13.6301 2.70968C14.1001 3.17968 14.1001 3.93963 13.6301 4.40963L12.8501 5.18966C12.3801 5.65966 11.6201 5.65966 11.1501 5.18966Z" stroke="#666666" strokeWidth="1.5" strokeLinecap="round" strokeLinejoin="round"/>
<path d="M19.45 9.80957H20.55C21.21 9.80957 21.75 10.3496 21.75 11.0096V12.1096C21.75 12.7696 21.21 13.3096 20.55 13.3096H19.45C18.79 13.3096 18.25 12.7696 18.25 12.1096V11.0096C18.25 10.3496 18.79 9.80957 19.45 9.80957Z" stroke="#666666" strokeWidth="1.5" strokeLinecap="round" strokeLinejoin="round"/>
<path d="M4.55 9.80957H3.45C2.79 9.80957 2.25 10.3496 2.25 11.0096V12.1096C2.25 12.7696 2.79 13.3096 3.45 13.3096H4.55C5.21 13.3096 5.75 12.7696 5.75 12.1096V11.0096C5.75 10.3496 5.21 9.80957 4.55 9.80957Z" stroke="#666666" strokeWidth="1.5" strokeLinecap="round" strokeLinejoin="round"/>
<path d="M18.5402 10.0998L13.2402 4.7998" stroke="#666666" strokeWidth="1.5" strokeLinecap="round" strokeLinejoin="round"/>
<path d="M5.46094 10.0998L10.7609 4.7998" stroke="#666666" strokeWidth="1.5" strokeLinecap="round" strokeLinejoin="round"/>
</svg>
