<svg width="28" height="23" viewBox="0 0 28 23" fill="none" xmlns="http://www.w3.org/2000/svg">
<path d="M3.50297 16.3673L3.05974 16.5987L3.52256 17.4852L3.96578 17.2538L3.50297 16.3673ZM24.7619 6.39619C25.0067 6.26838 25.1015 5.96634 24.9737 5.72155C24.8459 5.47677 24.5439 5.38193 24.2991 5.50973L24.7619 6.39619ZM3.96578 17.2538L24.7619 6.39619L24.2991 5.50973L3.50297 16.3673L3.96578 17.2538Z" fill="#DE9E70"/>
<path d="M15.4075 4.75509C15.4075 4.75509 16.0682 5.57136 18.2251 6.17021C20.5147 6.80589 24.5328 5.95275 24.5328 5.95275" stroke="#DE9E70"/>
<path d="M20.4103 14.0917C20.4103 14.0917 20.1102 13.0854 20.8351 10.9674C21.6045 8.71921 24.579 5.88634 24.579 5.88634" stroke="#DE9E70"/>
</svg>
