<?xml version="1.0" standalone="no"?>
<!DOCTYPE svg PUBLIC "-//W3C//DTD SVG 1.1//EN" "http://www.w3.org/Graphics/SVG/1.1/DTD/svg11.dtd" >
<svg xmlns="http://www.w3.org/2000/svg" xmlns:xlink="http://www.w3.org/1999/xlink" version="1.1">
<metadata>
Created by FontForge 20190801 at Mon Mar 20 14:23:18 2023
 By Unknown
Copyright (C) 2023 by UICreative. All Right Reserved
</metadata>
<defs>
<font id="Holispay" horiz-adv-x="485" >
  <font-face 
    font-family="Holispay"
    font-weight="400"
    font-stretch="normal"
    units-per-em="1000"
    panose-1="0 0 0 0 0 0 0 0 0 0"
    ascent="800"
    descent="-200"
    x-height="454.5"
    cap-height="631"
    bbox="-197 -190.25 1009 801"
    underline-thickness="0"
    underline-position="0"
    unicode-range="U+000A-20AC"
  />
<missing-glyph horiz-adv-x="527" 
d="M276 350l181 -303v605zM264 329l-185 -308h370zM251 350l-180 300v-601zM78 680l185 -309l186 309h-371zM50 700h427v-700h-427v700z" />
    <glyph glyph-name=".notdef" horiz-adv-x="527" 
d="M276 350l181 -303v605zM264 329l-185 -308h370zM251 350l-180 300v-601zM78 680l185 -309l186 309h-371zM50 700h427v-700h-427v700z" />
    <glyph glyph-name=".null" horiz-adv-x="0" 
 />
    <glyph glyph-name=".null" horiz-adv-x="0" 
 />
    <glyph glyph-name="nonmarkingreturn" horiz-adv-x="333" 
 />
    <glyph glyph-name="controlLF" unicode="&#xa;" horiz-adv-x="0" 
 />
    <glyph glyph-name="controlCR" unicode="&#xd;" horiz-adv-x="0" 
 />
    <glyph glyph-name="space" unicode=" " horiz-adv-x="275" 
 />
    <glyph glyph-name="exclam" unicode="!" horiz-adv-x="235" 
d="M122 127q24 0 42.5 -18.5t18.5 -43.5q0 -29 -18.5 -47t-45.5 -18q-26 0 -45 19t-19 46q0 24 20.5 43t46.5 19zM125 160h-12q-4 22 -19 101.5t-24 130t-17.5 108.5t-8.5 82q0 34 21 54t57 20q28 0 48 -16.5t20 -57.5q0 -54 -24 -201.5t-41 -220.5z" />
    <glyph glyph-name="quotedbl" unicode="&#x22;" horiz-adv-x="298" 
d="M244 681q9 0 15.5 -6.5t6.5 -15.5v-73q0 -11 -5 -21l-33 -65h-22l-31 66q-5 10 -5 20v73q0 9 6.5 15.5t15.5 6.5h52zM106 681q9 0 15.5 -6.5t6.5 -15.5v-73q0 -11 -5 -21l-33 -65h-22l-32 66q-4 10 -4 20v73q0 9 6.5 15.5t15.5 6.5h52z" />
    <glyph glyph-name="numbersign" unicode="#" horiz-adv-x="539" 
d="M230 324l-26 -93h97l26 93h-97zM35 182l14 49h87l26 93h-88l13 49h88l49 179h68l-50 -179h98l48 179h69l-51 -179h97l-13 -49h-96l-26 -93h98l-13 -49h-97l-50 -182h-66l48 182h-98l-48 -182h-68l50 182h-89z" />
    <glyph glyph-name="dollar" unicode="$" horiz-adv-x="543" 
d="M259 625q-37 0 -62 -19.5t-24 -52.5q1 -28 19.5 -54.5t47 -48.5t63.5 -44t69.5 -45.5t63 -48.5t46.5 -57t18 -68q0 -80 -55.5 -131t-146.5 -56v-75h-51v75q-109 6 -202 49v179h17q5 -8 13 -22t33.5 -48.5t50 -61t57 -48.5t60.5 -22q31 0 58.5 18.5t27.5 52.5q0 32 -23 62
t-57 53t-74 50t-74.5 52.5t-57 63t-22.5 78.5q0 87 57 138t136 55v62h51v-63q106 -5 172 -31v-202h-19q-19 42 -37 74t-42.5 65.5t-53.5 52t-59 18.5z" />
    <glyph glyph-name="percent" unicode="%" horiz-adv-x="628" 
d="M165 620q-17 0 -30 -37.5t-13 -90t13 -90t30 -37.5t29.5 37.5t12.5 90.5t-12.5 90t-29.5 37zM164 356q-54 0 -92 40t-38 96q0 57 38 98t92 41q52 0 90.5 -41t38.5 -98q0 -56 -38.5 -96t-90.5 -40zM466.5 265q-17.5 0 -30.5 -37.5t-13 -90t13 -90t30.5 -37.5t29.5 37
t12 90t-12 90.5t-29.5 37.5zM465 0q-53 0 -91.5 40t-38.5 96q0 58 38.5 98.5t91.5 40.5q52 0 90.5 -41t38.5 -98q0 -56 -38.5 -96t-90.5 -40zM211 0h-89l287 631h89z" />
    <glyph glyph-name="ampersand" unicode="&#x26;" horiz-adv-x="680" 
d="M168 116q24 -40 63.5 -60t77 -20t66.5 7t38 17l-204 253q-5 -4 -11.5 -10.5t-21 -27.5t-22 -42.5t-6 -53.5t19.5 -63zM304.5 574q-26.5 0 -41 -23t-14.5 -55q0 -48 49 -117q2 1 6 3.5t14.5 11.5t18.5 20.5t14 32.5t6 46q0 31 -13 56t-39.5 25zM504 129q7 -9 19 -24
t41 -45t49 -41l17 -12v-12h-64q-27 0 -42.5 1t-38 6.5t-34.5 15.5l-19 19q-21 -17 -37 -27t-58 -20t-99 -10q-76 0 -127 29.5t-67 79.5q-8 26 -8 51t7 45t17.5 38.5t26 33t30 26.5t30.5 21.5t27 15t21 9.5q-2 4 -13.5 20.5t-16 24.5t-12 23.5t-11 32t-3.5 34.5
q0 66 45.5 99.5t108.5 33.5q37 0 64 -11t41 -28.5t21 -35.5t7 -36q0 -25 -12 -47.5t-28.5 -36t-33 -23.5t-27.5 -14l-12 -4l169 -209q33 51 46 118l29 -5q-13 -76 -53 -136z" />
    <glyph glyph-name="quotesingle" unicode="'" horiz-adv-x="160" 
d="M106 681q9 0 15.5 -6.5t6.5 -15.5v-73q0 -11 -5 -21l-33 -65h-22l-32 66q-4 10 -4 20v73q0 9 6.5 15.5t15.5 6.5h52z" />
    <glyph glyph-name="parenleft" unicode="(" horiz-adv-x="242" 
d="M51 196q0 7 -0.5 15.5t-0.5 15.5q-1 7 -1 15v30q0 7 -1 14v55q1 8 1 15v15q0 55 5 98l3 34q7 40 12 60.5t21 51.5t42 59q44 46 119 57v-34l-4 -2q-27 -12 -46.5 -48.5t-28.5 -75.5t-13 -87t-4.5 -71t0.5 -41v-126q1 -25 1 -46q1 -31 4.5 -62t13 -70t29.5 -74.5t48 -59.5
v-34q-19 2 -32.5 5.5t-37 13t-45.5 31.5t-42 54q-16 27 -22.5 51.5t-14.5 68.5l-3 36q-2 19 -3 36z" />
    <glyph glyph-name="parenright" unicode=")" horiz-adv-x="242" 
d="M192 226q0 -6 -0.5 -14.5t-0.5 -15.5q-1 -17 -3 -36l-4 -35q-6 -39 -11 -59.5t-21 -51.5t-43 -59q-11 -13 -21 -21t-36.5 -19t-61.5 -15v34q15 12 28.5 30t29.5 49t26 79.5t11 106.5q1 22 2 47v125v41.5t-4.5 71.5t-13 87t-28 75.5t-47.5 48.5l-4 2v34q19 -3 32.5 -6.5
t37.5 -14t46 -32.5t41 -54q23 -38 31 -88l6 -33l4 -34q5 -45 5 -98v-15v-14v-55v-15v-30q0 -8 -1 -16z" />
    <glyph glyph-name="asterisk" unicode="*" horiz-adv-x="327" 
d="M261 568q13 5 23 -5.5t9 -25.5t-14 -19l-70 -22q-4 -1 -5 -4.5t1 -5.5l49 -62q8 -11 0 -23.5t-21 -15t-23 8.5l-42 66q-2 3 -5.5 3t-5.5 -3l-42 -63q-10 -11 -23 -9t-21 15t-1 23l50 60q3 3 1.5 6t-4.5 4l-69 22q-13 4 -14 19t9 25.5t22 5.5l66 -29q4 -1 7 1t2 5l-3 75
q0 11 8.5 16.5t18 5.5t18 -6t8.5 -17l-5 -74q-1 -4 2 -6t7 -1z" />
    <glyph glyph-name="plus" unicode="+" horiz-adv-x="453" 
d="M264 319h159v-39h-159v-180h-76v180h-159v39h159v176h76v-176z" />
    <glyph glyph-name="comma" unicode="," horiz-adv-x="191" 
d="M92 121q29 0 47.5 -19t18.5 -54q0 -61 -51 -108l-9 6q6 9 10 21t0.5 22.5t-16.5 10.5q-26 0 -43 16t-17 42t17.5 44.5t42.5 18.5z" />
    <glyph glyph-name="hyphen" unicode="-" horiz-adv-x="279" 
d="M250 250h-222v64h222v-64z" />
    <glyph glyph-name="period" unicode="." horiz-adv-x="188" 
d="M94 122q25 0 43.5 -17t18.5 -43q0 -23 -18.5 -42.5t-43.5 -19.5q-28 0 -45 19.5t-17 42.5q0 26 18 43t44 17z" />
    <glyph glyph-name="slash" unicode="/" horiz-adv-x="440" 
d="M119 0h-108l271 631h108z" />
    <glyph glyph-name="zero" unicode="0" horiz-adv-x="582" 
d="M387 316.5q0 128.5 -29 213.5t-65 85q-40 0 -68 -87.5t-28 -211t28 -211.5t68 -88q36 0 65 85.5t29 214zM540 316.5q0 -130.5 -72.5 -223t-174.5 -92.5q-104 0 -177.5 92.5t-73.5 223t73.5 222.5t177.5 92q102 0 174.5 -92t72.5 -222.5z" />
    <glyph glyph-name="one" unicode="1" horiz-adv-x="282" 
d="M231 1h-141v494q0 25 -12.5 36.5t-25.5 10.5h-13v22l192 67v-630z" />
    <glyph glyph-name="two" unicode="2" horiz-adv-x="512" 
d="M447 1h-417v14q77 64 148 130q85 79 121.5 165t3.5 163q-19 43 -64.5 63t-96.5 4.5t-82 -64.5l-13 5q3 6 8.5 16t25 36t42.5 46t61.5 36t80.5 16q82 0 133.5 -36t65.5 -104q9 -38 -1 -77.5t-32 -72.5t-50 -63.5t-58 -54t-55.5 -41.5t-41.5 -27l-16 -9h237v-145z" />
    <glyph glyph-name="three" unicode="3" horiz-adv-x="495" 
d="M56 490q18 29 32 48t39 43.5t58 37.5t72 13q23 0 44.5 -6t42.5 -19t36 -37.5t20 -57.5q7 -45 -17 -93t-69 -71q58 -7 100.5 -47.5t40.5 -110.5q-3 -87 -69.5 -141.5t-163.5 -54.5q-45 0 -97 20.5t-94 53.5l15 14q11 -8 35 -15.5t55.5 -7.5t61 9t55 38.5t34.5 76.5
q11 55 -5.5 92.5t-60.5 50.5q-4 1 -5 5.5t2 7.5q27 23 40 56.5t11.5 61t-14.5 41.5q-30 32 -68 36t-68 -10.5t-50 -38.5z" />
    <glyph glyph-name="four" unicode="4" horiz-adv-x="535" 
d="M268 433l-152 -199h152v199zM411 1h-143v117h-244v19l370 494h17l1 -397h86v-116h-87v-117z" />
    <glyph glyph-name="five" unicode="5" horiz-adv-x="458" 
d="M163 425q160 0 224 -100q50 -78 20 -173q-27 -91 -109 -133q-47 -25 -103 -25q-39 0 -88 14t-75 41l9 14q67 -36 116 -18t77 69t30 119q3 82 -43 132q-14 16 -45 23t-58 11.5t-35 14.5q-12 17 -8 39l31 178h259v-120h-260l-8 -48q-3 -18 4.5 -28t61.5 -10z" />
    <glyph glyph-name="six" unicode="6" horiz-adv-x="487" 
d="M211 377q-18 -4 -23 -44t2.5 -93t21.5 -105t35.5 -85.5t43.5 -30.5q18 4 23 43.5t-2.5 93.5t-21.5 106.5t-35.5 86.5t-43.5 28zM357 612q-37 -9 -68.5 -39t-50.5 -68.5t-29.5 -66.5t-14.5 -47q18 9 46 11.5t62 -5.5t64.5 -27t53.5 -58t28 -92q8 -95 -51 -157t-142 -62
q-102 0 -158 69t-56 172q0 87 40.5 169.5t112.5 142t158 77.5z" />
    <glyph glyph-name="seven" unicode="7" horiz-adv-x="447" 
d="M184 1h-152l233 607h-233v23h397z" />
    <glyph glyph-name="eight" unicode="8" horiz-adv-x="522" 
d="M342 406q13 24 19.5 58t4.5 67.5t-20.5 58.5t-51.5 27q-34 4 -55.5 -20t-13.5 -55q5 -19 21 -41.5t27 -33.5t39.5 -36t29.5 -25zM349 129q-7 32 -33 69.5t-50.5 61.5t-61 56t-42.5 38q-27 -54 -38 -114.5t-3.5 -113t42.5 -87t93 -34.5q44 0 73 39.5t20 84.5zM478 170
q-5 -25 -23.5 -55t-46.5 -57.5t-68.5 -46.5t-83.5 -19q-55 0 -100 19.5t-71.5 51t-37.5 72t-4 81.5t34.5 81t73.5 68q-3 2 -7.5 6.5t-16 17.5t-20.5 26t-16.5 32t-7.5 37q0 71 57 110.5t135 39.5q61 0 109.5 -41t40.5 -102q-3 -27 -21.5 -50t-35.5 -34l-17 -10
q36 -31 56.5 -51t42.5 -49.5t28.5 -60.5t-0.5 -66z" />
    <glyph glyph-name="nine" unicode="9" horiz-adv-x="487" 
d="M275 255q18 5 23.5 44.5t-2 92.5t-21.5 105t-36 86t-43 30q-18 -3 -23 -43t2.5 -94t21 -106.5t35.5 -86t43 -28.5zM130 21q30 7 57.5 30t45 49.5t31 58t19.5 51t9 32.5q-17 -10 -45.5 -12.5t-62 6t-64.5 27t-53.5 57.5t-27.5 93q-9 95 50.5 156.5t142.5 61.5
q101 0 157.5 -69t56.5 -171q0 -86 -40 -168.5t-112 -142.5t-159 -79z" />
    <glyph glyph-name="colon" unicode=":" horiz-adv-x="200" 
d="M100 335q-28 0 -45 19t-17 43q0 26 18 43t44 17q25 0 43.5 -17.5t18.5 -42.5q0 -24 -18.5 -43t-43.5 -19zM100 122q25 0 43.5 -17t18.5 -43q0 -23 -18.5 -42.5t-43.5 -19.5q-28 0 -45 19.5t-17 42.5q0 26 18 43t44 17z" />
    <glyph glyph-name="semicolon" unicode=";" horiz-adv-x="203" 
d="M102 338q-28 0 -45.5 19t-17.5 43q0 26 18.5 43t44.5 17q24 0 42.5 -17.5t18.5 -42.5q0 -24 -18 -43t-43 -19zM98 121q29 0 47.5 -19t18.5 -54q0 -61 -51 -108l-9 6q6 9 10 21t0.5 22.5t-16.5 10.5q-26 0 -43 16t-17 42t17.5 44.5t42.5 18.5z" />
    <glyph glyph-name="less" unicode="&#x3c;" horiz-adv-x="467" 
d="M428 100l-395 180v71l395 180v-65l-296 -134l296 -136v-96z" />
    <glyph glyph-name="equal" unicode="=" horiz-adv-x="465" 
d="M429 150h-394v75h394v-75zM429 295h-394v76h394v-76z" />
    <glyph glyph-name="greater" unicode="&#x3e;" horiz-adv-x="467" 
d="M39 100v65l296 133l-296 137v96l395 -180v-71z" />
    <glyph glyph-name="question" unicode="?" horiz-adv-x="436" 
d="M219 649q76 0 129.5 -44t53.5 -113q-1 -36 -17.5 -69t-40.5 -56.5t-52 -49.5t-52 -49t-40 -55t-16 -66h-21q0 51 14.5 100.5t31.5 81t31 67.5t14 64q0 49 -29.5 77t-69.5 28q-33 0 -64.5 -14.5t-48.5 -41.5h-20q27 63 78.5 101.5t118.5 38.5zM174 122q25 0 43 -18t18 -43
q0 -24 -17.5 -42.5t-43.5 -18.5q-25 0 -43 18.5t-18 45.5q0 24 18.5 41t42.5 17z" />
    <glyph glyph-name="at" unicode="@" horiz-adv-x="717" 
d="M289 63q-1 -49 11 -49q25 0 46.5 30.5t33.5 73t18.5 79t6.5 55.5v5v6.5t-0.5 7.5t-1 8t-1 8t-2 8t-3.5 6.5t-4.5 5.5t-6 3.5t-7.5 1.5q-23 0 -45.5 -56t-33.5 -113.5t-11 -79.5zM631 -20q-21 -23 -40 -40t-54.5 -39t-86.5 -34t-113 -12q-79 0 -147 37t-109 104t-41 149
q0 79 29.5 145.5t80 109.5t116.5 67t139 24q52 0 99.5 -17t86.5 -49.5t62 -88t23 -124.5q0 -91 -54 -152t-151 -61q-36 0 -61 21q-14 13 -33 13t-34 -11q-30 -23 -61 -23q-54 0 -83 41.5t-29 99.5q0 84 50 140t129 56q25 0 43.5 -15.5t24.5 -42.5l14 47h139
q-73 -219 -73 -280q0 -6 4.5 -13.5t13.5 -7.5q55 0 98.5 55t43.5 127q0 113 -70 189t-182 76q-78 0 -144 -28t-109 -74t-66.5 -104t-23.5 -120q0 -76 40 -139.5t103 -98t132 -34.5q178 0 272 108z" />
    <glyph glyph-name="A" unicode="A" horiz-adv-x="536" 
d="M197 491q-43 -106 -56.5 -149t-19.5 -93h165zM534 14q3 -5 0.5 -9.5t-7.5 -4.5h-114q-16 0 -29.5 9.5t-19.5 24.5l-71 196h-174q-6 -72 3.5 -135t22.5 -80q3 -5 2 -10t-6 -5h-128q-4 0 -6.5 3t-2.5 6q2 18 11 47t17.5 51.5t21 53t14.5 36.5q1 2 19 49v3h1
q115 301 141 368q6 14 21 14h18q15 0 20 -14q22 -54 103 -263.5t96 -253.5q6 -16 15.5 -33.5t20 -34t11.5 -18.5z" />
    <glyph glyph-name="B" unicode="B" horiz-adv-x="542" 
d="M234 17q92 0 135 42t43 117q0 40 -11 71t-29 48.5t-40 26t-44.5 7.5t-42.5 -10q-42 -20 -65 -32v-236q0 -34 16 -34h38zM203 614q-23 0 -23 -32v-272q42 22 85 40q39 17 67.5 56.5t28.5 85.5q0 57 -29 89.5t-99 32.5h-30zM316 349q81 0 142 -49.5t61 -126.5
q0 -83 -61.5 -128t-179.5 -45h-233q-6 0 -7.5 5.5t3.5 8.5q12 10 12 35v531q0 27 -12 37q-5 3 -3.5 8.5t7.5 5.5h200q117 0 175.5 -37t58.5 -98q0 -31 -16 -57t-42.5 -43t-52 -28t-52.5 -19z" />
    <glyph glyph-name="C" unicode="C" horiz-adv-x="575" 
d="M25 314q0 144 77 236.5t211 92.5q165 0 237 -151l-114 -35q-16 85 -63 132t-110 33q-41 -9 -70 -53.5t-41 -105.5t-5 -129.5t31 -126.5t74 -96.5t118 -38.5q32 0 62 10t49.5 24t34 27.5t21.5 23.5l6 10q16 -12 18 -14q-15 -27 -35.5 -52t-52.5 -53t-78 -43t-98 -11
q-62 4 -111.5 29.5t-78.5 61t-48.5 79.5t-26.5 81t-7 69z" />
    <glyph glyph-name="D" unicode="D" horiz-adv-x="576" 
d="M261 17q49 0 83 43.5t48.5 107.5t14.5 141q0 83 -12.5 143.5t-36 95t-52.5 50.5t-64 16h-39q-23 0 -23 -32v-531q0 -34 16 -34h65zM245 631q83 0 152 -36.5t112 -109t43 -168.5q0 -48 -10 -92.5t-32.5 -85.5t-54.5 -71.5t-80 -49t-106 -18.5h-224q-6 0 -7.5 5.5t3.5 8.5
q12 10 12 35v531q0 27 -12 37q-5 3 -3.5 8.5t7.5 5.5h200z" />
    <glyph glyph-name="E" unicode="E" horiz-adv-x="499" 
d="M489 46v-28q0 -7 -5 -12.5t-12 -5.5h-427q-6 0 -7.5 5.5t3.5 8.5q12 10 12 35v531q0 27 -12 37q-12 9 4 14h414q7 0 12 -5.5t5 -12.5v-28q0 -7 -7.5 -8.5t-11.5 4.5q-14 26 -45 26h-232v-273h162q32 0 46 26q3 6 11 4.5t8 -8.5v-69q0 -7 -8 -8.5t-11 4.5q-14 26 -46 26
h-162v-285h244q32 0 46 26q3 6 11 4.5t8 -8.5z" />
    <glyph glyph-name="F" unicode="F" horiz-adv-x="462" 
d="M439 631q8 0 13 -5.5t5 -12.5v-28q0 -7 -8 -8.5t-11 4.5q-14 26 -46 26h-212v-273h153q31 0 45 26q4 6 11.5 4.5t7.5 -8.5v-69q0 -7 -7.5 -8.5t-11.5 4.5q-14 26 -45 26h-153v-260q0 -25 13 -35q4 -3 2.5 -8.5t-7.5 -5.5h-143q-6 0 -7.5 5.5t3.5 8.5q12 10 12 37v531
q0 25 -12 35q-5 3 -3.5 8.5t7.5 5.5h394z" />
    <glyph glyph-name="G" unicode="G" horiz-adv-x="597" 
d="M26 316q0 142 75.5 232.5t207.5 90.5q163 0 233 -147l-111 -35q-16 84 -63 131t-108 31q-35 -9 -60.5 -36.5t-38.5 -66.5t-19 -86.5t0 -97t18 -97t34 -88.5t49 -70t63.5 -41.5t75.5 -3.5q35 8 52.5 38.5t18.5 68t-4.5 76.5t-12.5 64.5t-10 32.5q-3 4 -0.5 8.5t7.5 4.5h85
q24 0 40.5 -16.5t16.5 -40.5v-24q0 -67 -37 -119q-39 -54 -97 -93t-132 -39q-131 0 -207 90.5t-76 232.5z" />
    <glyph glyph-name="H" unicode="H" horiz-adv-x="578" 
d="M525 51q0 -27 12 -37q5 -3 3.5 -8.5t-7.5 -5.5h-143q-7 0 -8.5 5.5t3.5 8.5q12 10 13 35v274h-218v-272q0 -27 13 -37q4 -3 2.5 -8.5t-7.5 -5.5h-143q-6 0 -7.5 5.5t3.5 8.5q12 10 12 35v531q0 27 -12 37q-5 3 -3.5 8.5t7.5 5.5h143q6 0 7.5 -5.5t-2.5 -8.5
q-13 -10 -13 -35v-239h218v237q0 27 -13 37q-5 3 -3.5 8.5t8.5 5.5h143q6 0 7.5 -5.5t-3.5 -8.5q-12 -10 -12 -35v-531z" />
    <glyph glyph-name="I" unicode="I" horiz-adv-x="234" 
d="M180 51q0 -27 13 -37q4 -3 2.5 -8.5t-7.5 -5.5h-143q-6 0 -7.5 5.5t3.5 8.5q12 10 12 35v531q0 27 -12 37q-5 3 -3.5 8.5t7.5 5.5h143q6 0 7.5 -5.5t-2.5 -8.5q-13 -10 -13 -35v-531z" />
    <glyph glyph-name="J" unicode="J" horiz-adv-x="255" 
d="M68 631h143q6 0 7.5 -5.5t-3.5 -8.5q-12 -10 -12 -35v-473q0 -117 -101 -117q-39 0 -83 35q-5 5 -5 9.5t4 7t9 0.5q17 -8 28.5 5t16 33t4.5 43v455q0 27 -13 37q-5 3 -3.5 8.5t8.5 5.5z" />
    <glyph glyph-name="K" unicode="K" horiz-adv-x="497" 
d="M462 13q5 -3 3.5 -8.5t-7.5 -5.5h-98q-15 0 -26 11t-11 27l-1 282q0 59 -44 40q-24 -10 -98 -31v-278q0 -27 13 -37q4 -3 2.5 -8.5t-7.5 -5.5h-143q-6 0 -7.5 5.5t3.5 8.5q12 10 12 35v531q0 27 -12 37q-5 3 -3.5 8.5t7.5 5.5h143q6 0 7.5 -5.5t-2.5 -8.5
q-13 -10 -13 -35v-232q81 32 130.5 115t29.5 164q5 1 12.5 1.5t27.5 -1t35 -5.5t27.5 -16.5t12.5 -30.5q0 -42 -39.5 -97t-103.5 -97q23 6 46 6q92 0 92 -89l-1 -249q0 -27 13 -37z" />
    <glyph glyph-name="L" unicode="L" horiz-adv-x="454" 
d="M457 46v-28q0 -7 -5 -12.5t-13 -5.5h-394q-6 0 -7.5 5.5t3.5 8.5q12 10 12 35v531q0 27 -12 37q-5 3 -3.5 8.5t7.5 5.5h143q6 0 7.5 -5.5t-2.5 -8.5q-13 -10 -13 -35v-558h212q32 0 46 26q3 6 11 4.5t8 -8.5z" />
    <glyph glyph-name="M" unicode="M" horiz-adv-x="715" 
d="M661 51q0 -27 12 -37q5 -3 3.5 -8.5t-7.5 -5.5h-143q-6 0 -7.5 5.5t2.5 8.5q13 10 13 35v510l-196 -546q-3 -8 -12 -8.5t-12 7.5l-239 538v-79q0 -51 7 -103t19.5 -95.5t26.5 -82t29.5 -70.5t27 -53t21.5 -37.5l10 -16.5q2 -4 -0.5 -8.5t-6.5 -4.5h-29h-59h-48
q-8 0 -13.5 6t-5.5 14v475q0 33 -1.5 55.5t-3.5 34t-4 16.5t-5.5 10t-4.5 7q-2 4 0.5 8.5t6.5 4.5q12 0 125 -1q17 0 25 -16l185 -423l155 426q5 14 18 14h119q6 0 7.5 -5.5t-2.5 -8.5q-13 -10 -13 -35v-531z" />
    <glyph glyph-name="N" unicode="N" horiz-adv-x="577" 
d="M527 611l1 -611h-23l-428 557v-85q0 -52 7 -104t19.5 -95.5t26.5 -82t29.5 -70.5t27 -53t21.5 -37.5l10 -16.5q3 -4 0.5 -8.5t-7.5 -4.5h-136q-8 0 -13.5 6t-5.5 14l-3 541q0 11 -2.5 20.5t-4 14t-6.5 12t-6 10.5q-2 4 0.5 8.5t6.5 4.5h149l312 -402q-4 44 -13.5 88.5
t-22 81.5t-25.5 69.5t-26.5 59t-23.5 44.5t-18 31.5t-9 14.5q-2 4 0.5 8.5t7.5 4.5h136q8 0 13.5 -6t5.5 -14z" />
    <glyph glyph-name="O" unicode="O" horiz-adv-x="675" 
d="M454.5 31.5q64.5 28.5 76 131.5t-36.5 221t-127.5 181.5t-143.5 35t-76 -132t36 -221t127.5 -181t144 -35zM326.5 643q85.5 0 159 -44t118.5 -119.5t48 -164t-36.5 -163.5t-110.5 -119t-156.5 -44t-159 44t-118.5 119.5t-48 164t36.5 163.5t110.5 119t156.5 44z" />
    <glyph glyph-name="P" unicode="P" horiz-adv-x="501" 
d="M180 283q76 -20 128.5 24.5t52.5 140.5q0 28 -6 55.5t-20 53t-40 41.5t-62 16h-30q-23 0 -23 -32v-299zM45 631h222q115 0 167.5 -48.5t52.5 -125.5q0 -47 -16.5 -83.5t-44 -58t-60.5 -35t-68 -17.5t-65 -3t-53 7v-216q0 -27 13 -37q4 -3 2.5 -8.5t-7.5 -5.5h-143
q-6 0 -7.5 5.5t3.5 8.5q12 10 12 35v531q0 27 -12 37q-5 3 -3.5 8.5t7.5 5.5z" />
    <glyph glyph-name="Q" unicode="Q" horiz-adv-x="676" 
d="M182 247q48 -118 127.5 -181.5t144 -35t76 132t-36.5 221.5t-127.5 181.5t-143.5 35t-76 -132t36 -221.5zM363 -11q21 -4 63.5 -28.5t71.5 -31.5q40 -9 72 -3t39 25h9q-6 -16 -14 -30t-21 -29.5t-34 -25t-47 -9.5q-32 0 -62.5 15t-50.5 33t-47 36.5t-50 23.5
q-10 2 -19 -0.5t-13 -6.5l-4 -3l-5 3q26 29 56 34q-63 9 -116.5 40.5t-89.5 76.5t-56.5 102t-21.5 114.5t20 116t65 105.5q89 96 219 96q85 0 159 -44t118.5 -119.5t47.5 -164.5q5 -131 -79 -225.5t-210 -100.5z" />
    <glyph glyph-name="R" unicode="R" horiz-adv-x="568" 
d="M180 582v-299q76 -20 128.5 24.5t52.5 140.5q0 28 -6 55.5t-20 53t-40 41.5t-62 16h-30q-23 0 -23 -32zM560 16q4 0 6 -4.5t1.5 -8.5t-4.5 -4h-119q-42 0 -69 41q-11 17 -56.5 80.5t-64.5 92.5q-26 40 -51 50q-14 2 -23 4v-216q0 -27 13 -37q4 -3 2.5 -8.5t-7.5 -5.5
h-143q-6 0 -7.5 5.5t3.5 8.5q12 10 12 35v531q0 27 -12 37q-5 3 -3.5 8.5t7.5 5.5h222q59 0 103 -15t68.5 -40t36.5 -55t12 -64q0 -79 -42.5 -124t-108.5 -62q33 -10 51 -37q3 -4 25 -38.5t39 -59t39.5 -55.5t38.5 -48t23 -17h8z" />
    <glyph glyph-name="S" unicode="S" horiz-adv-x="509" 
d="M304 380q184 -112 184 -219q0 -76 -64.5 -123t-171.5 -47q-48 0 -90 10.5t-67.5 26t-44.5 30.5t-26 26l-8 11l99 92q0 -4 1.5 -10.5t6.5 -25.5t12 -36.5t19 -38.5t26.5 -36t36.5 -25.5t46 -10.5q35 0 62.5 25t27.5 64q0 22 -10.5 42t-34 41.5t-42.5 35.5t-54 38t-61.5 45
t-53.5 49t-41.5 60t-14.5 65q0 72 58.5 119.5t134.5 47.5q77 0 135.5 -32.5t93.5 -74.5l-82 -88q-4 8 -12 22t-31 47.5t-45.5 57.5t-52.5 38.5t-56 4.5q-18 -7 -27.5 -21.5t-7.5 -37t16.5 -49t50 -59t88.5 -64.5z" />
    <glyph glyph-name="T" unicode="T" horiz-adv-x="496" 
d="M8 631h480v-159h-12q-8 26 -62 77.5t-103 62.5v-561q0 -27 13 -37q5 -3 3.5 -8.5t-8.5 -5.5h-143q-6 0 -7.5 5.5t3.5 8.5q12 10 12 35v563q-48 -11 -102.5 -63t-62.5 -77h-11v159z" />
    <glyph glyph-name="U" unicode="U" horiz-adv-x="557" 
d="M518 631q7 0 8.5 -5.5t-3.5 -8.5q-13 -10 -13 -37v-319q0 -136 -59 -200.5t-162 -64.5q-62 0 -107.5 18.5t-71 45.5t-40.5 67.5t-19.5 76t-4.5 79.5v297q0 27 -12 37q-5 3 -3.5 8.5t7.5 5.5h143q7 0 8 -5.5t-3 -8.5q-13 -10 -13 -37v-316q0 -241 157 -241
q71 0 116.5 60.5t45.5 176.5v320q0 27 -12 37q-5 3 -3.5 8.5t7.5 5.5h34z" />
    <glyph glyph-name="V" unicode="V" horiz-adv-x="535" 
d="M530 622q-1 -18 -10 -47t-17.5 -51.5t-21 -53t-15.5 -36.5q-115 -302 -161 -420q-5 -14 -20 -14h-18q-15 0 -20 14q-22 54 -103 263.5t-97 253.5q-5 16 -15 33.5t-20 33.5t-12 19q-2 5 0.5 9.5t7.5 4.5h113q17 0 30.5 -9.5t18.5 -24.5l168 -457q38 95 52 135
q23 69 26.5 147.5t-6 128.5t-20.5 65q-4 5 -2.5 10t6.5 5h128q4 0 6.5 -3t1.5 -6z" />
    <glyph glyph-name="W" unicode="W" horiz-adv-x="828" 
d="M687 631h127q4 0 7 -3t2 -7q-2 -17 -10.5 -46t-17.5 -51.5t-21 -53t-15 -36.5q-115 -303 -161 -420q-5 -14 -21 -14h-17q-15 0 -21 14q-28 70 -117 302q-97 -251 -117 -302q-5 -14 -20 -14h-18q-15 0 -20 14q-23 54 -103.5 263.5t-96.5 253.5q-5 16 -15 33.5t-20 33.5
t-12 19q-2 4 0.5 9t7.5 5h113q17 0 30.5 -9.5t18.5 -24.5l168 -457q52 141 74 201q-60 155 -72 190q-5 16 -15 33.5t-20.5 33.5t-11.5 19q-2 5 0 9.5t8 4.5h113q17 0 30 -9.5t19 -24.5l167 -457q39 95 53 135q23 69 26.5 147.5t-6 128.5t-20.5 65q-4 5 -2.5 10t6.5 5z" />
    <glyph glyph-name="X" unicode="X" horiz-adv-x="549" 
d="M542 18q5 -5 4 -11.5t-6 -6.5h-157q-7 0 -9.5 5.5t-0.5 10.5q5 16 -37 85q-1 1 -104 170q-48 -59 -73.5 -149t-9.5 -110q4 -4 2.5 -8.5t-6.5 -4.5h-54.5h-60.5q-3 0 -6 2.5t-2 6.5q3 26 73.5 119.5t126.5 159.5q-147 241 -150 245q-28 47 -63 82q-5 5 -4 11.5t6 6.5h157
q8 0 10 -5.5t0 -10.5q-5 -16 37 -85q4 -6 92 -149q47 58 67 137t3 99q-3 4 -1.5 9t6.5 5h54.5h59.5q19 -1 -3 -40t-67.5 -95.5t-70.5 -86.5t-38 -45q72 -119 162 -265q29 -47 63 -82z" />
    <glyph glyph-name="Y" unicode="Y" horiz-adv-x="496" 
d="M310 51q0 -27 12 -37q5 -3 3.5 -8.5t-7.5 -5.5h-143q-7 0 -8.5 5.5t3.5 8.5q12 10 13 35v287q-112 182 -134.5 217t-48.5 61q-5 5 -4 11.5t6 6.5h157q8 0 10 -5.5t0 -11.5q-4 -11 19 -52t121 -202q25 30 41.5 72t22 79.5t4.5 67t-9 38.5q-3 4 -1.5 9t6.5 5h54.5t59.5 -1
q9 0 9 -8q0 -35 -63.5 -127.5t-122.5 -158.5v-286z" />
    <glyph glyph-name="Z" unicode="Z" horiz-adv-x="505" 
d="M468 50q3 6 11 4.5t8 -8.5v-28q0 -7 -5 -12.5t-12 -5.5h-446q-11 0 -16 10t1 20l320 578h-225q-32 0 -46 -25q-3 -6 -10.5 -4.5t-8.5 8.5v28q0 7 5.5 12t12.5 5h426q8 0 11.5 -6.5t-0.5 -12.5l-317 -589h245q32 0 46 26z" />
    <glyph glyph-name="bracketleft" unicode="[" horiz-adv-x="192" 
d="M236 -100h-186v829h186v-92h-94v-645h94v-92z" />
    <glyph glyph-name="backslash" unicode="\" horiz-adv-x="369" 
d="M345 0h-106l-216 631h106z" />
    <glyph glyph-name="bracketright" unicode="]" horiz-adv-x="192" 
d="M141 -100h-186v92h95v645h-95v92h186v-829z" />
    <glyph glyph-name="underscore" unicode="_" horiz-adv-x="605" 
d="M554 -150h-504v105h504v-105z" />
    <glyph glyph-name="a" unicode="a" 
d="M309 60v374q-14 17 -46 17q-54 0 -81.5 -58t-27.5 -149q0 -105 26.5 -157.5t66.5 -52.5q33 0 62 26zM372 5q-36 0 -63 35q-33 -29 -71.5 -38t-75.5 4t-67.5 41.5t-49 78t-18.5 111.5q0 57 18.5 104.5t49 76.5t68 45t78.5 13t76.5 -23.5t69.5 -5.5q20 10 29 13q10 4 15 1
t5 -10v-418q0 -7 6 -6q5 1 7.5 -4.5t0.5 -11.5t-8 -6h-70z" />
    <glyph glyph-name="b" unicode="b" horiz-adv-x="489" 
d="M234 21q100 0 100 203q0 106 -23.5 158t-63.5 52q-16 0 -33.5 -10.5t-27.5 -21.5l-9 -11l-1 -346q28 -24 58 -24zM177 418q32 33 71.5 45t76.5 1t68 -39t49.5 -79t18.5 -115t-20.5 -114t-53 -76t-71 -37.5t-76.5 -5.5t-66 27q-9 -20 -29 -20h-104q-6 0 -7.5 5.5t3.5 9.5
q12 9 12 36l1 493v5.5t-1.5 3t-4.5 1.5q-9 -1 -11 8t7 13q68 34 117 54q10 4 15 1t5 -10v-207z" />
    <glyph glyph-name="c" unicode="c" horiz-adv-x="449" 
d="M422 98q1 1 4 0.5t4 -3t0 -5.5q-26 -40 -74 -68.5t-115 -24.5q-99 5 -157 68.5t-58 168.5q0 104 62.5 171t158.5 67q68 0 109 -28t75 -88l-107 -40q0 2 -1 6t-4 15t-7 21.5t-10 24.5t-13.5 25t-18 21t-22 15t-26.5 5t-31 -7q-27 -12 -38.5 -48.5t-8.5 -79t16 -80.5
q29 -87 78 -132.5t98 -45.5q48 0 86 42z" />
    <glyph glyph-name="d" unicode="d" horiz-adv-x="489" 
d="M312 79v336q-2 4 -6.5 8.5t-18 12.5t-28.5 8q-53 0 -78 -55.5t-25 -147.5q0 -106 23 -158t63 -52q17 0 34.5 12t26.5 24zM452 20q4 -4 2.5 -9.5t-7.5 -5.5h-104q-13 0 -22 9.5t-9 23.5v14q-33 -35 -72 -48.5t-75.5 -3.5t-67.5 38t-49.5 79.5t-18.5 116.5t20 114.5t52 76
t70 37.5t75 4.5t66 -27.5v110v5.5t-1.5 3t-4.5 1.5q-9 -1 -10.5 8t6.5 13q69 34 118 54q10 4 14.5 1t4.5 -10v-569q0 -27 13 -36z" />
    <glyph glyph-name="e" unicode="e" horiz-adv-x="457" 
d="M229 449q-41 0 -63 -35t-22.5 -80.5t9 -87t24.5 -56.5q65 0 102 72q34 66 18 128q-14 59 -68 59zM419 95q2 3 5.5 2.5t6 -4.5t-0.5 -8q-18 -36 -69 -62t-119 -26q-47 0 -86 16t-64 43.5t-43 63t-21.5 75t0.5 79t22 75t43.5 63t64.5 43.5t86 16q84 0 133.5 -42.5
t49.5 -101.5q0 -50 -38.5 -86t-92 -51t-113.5 -15q3 -5 7.5 -13.5t20.5 -29t33.5 -36.5t45 -29t54.5 -13q46 0 75 41z" />
    <glyph glyph-name="f" unicode="f" horiz-adv-x="257" 
d="M139 622q-12 -8 -13 -22t6.5 -29.5t20.5 -31.5q33 -40 35 -77h44q12 0 12 -10t-11 -10h-45v-386q0 -27 12 -36q5 -4 3.5 -9.5t-7.5 -5.5h-143q-7 0 -8.5 5.5t3.5 9.5q12 9 13 35v387h-30q-12 0 -12 10t12 10h30v44q0 33 10 59.5t26.5 42.5t32.5 24.5t32 11.5q27 5 48 2.5
t37 -10.5t27 -16.5t16 -15.5l6 -6l-51 -71q-12 39 -48 74t-58 21z" />
    <glyph glyph-name="g" unicode="g" horiz-adv-x="483" 
d="M309 60v374q-14 18 -46 18q-54 0 -81.5 -58.5t-27.5 -149.5q0 -105 26.5 -157.5t66.5 -52.5q33 0 62 26zM436 451v-502q0 -53 -49 -91t-119 -38q-80 0 -205 46l30 112q5 -5 12.5 -14.5t30 -34t43.5 -42.5t47 -33.5t45 -15.5q38 0 38 85v117q-33 -29 -71.5 -38t-75.5 4
t-67.5 41.5t-49 78.5t-18.5 111q0 57 18.5 104.5t49 76.5t68 45t78.5 13t76.5 -23.5t69.5 -4.5q20 9 29 12q10 4 15 1t5 -10z" />
    <glyph glyph-name="h" unicode="h" horiz-adv-x="479" 
d="M444 20q5 -4 3.5 -9.5t-7.5 -5.5h-143q-7 0 -8.5 5.5t3.5 9.5q13 9 13 36l-1 288q0 74 -54 74q-39 0 -74 -40v-322q0 -27 12 -36q5 -4 3.5 -9.5t-7.5 -5.5h-143q-7 0 -8.5 5.5t3.5 9.5q13 9 13 35v494v4.5t-1.5 3.5t-4.5 2q-9 -1 -11 8t7 13q68 34 117 54q10 3 15 0t5 -9
v-223q58 70 146 70q48 0 79 -32.5t31 -74.5v-309q0 -27 12 -36z" />
    <glyph glyph-name="i" unicode="i" horiz-adv-x="224" 
d="M188 20q5 -4 3.5 -9.5t-7.5 -5.5h-143q-7 0 -8.5 5.5t3.5 9.5q13 9 13 35v321v4.5t-1.5 3.5t-4.5 1q-9 -1 -11 8t7 14q68 34 117 53q10 4 15 1t5 -10v-395q0 -27 12 -36zM112 501q-26 0 -44.5 19t-18.5 46.5t18.5 46.5t44.5 19t44.5 -19t18.5 -46.5t-18.5 -46.5
t-44.5 -19z" />
    <glyph glyph-name="j" unicode="j" horiz-adv-x="223" 
d="M157 460q10 4 14.5 1t4.5 -10l1 -502q0 -53 -49 -91t-120 -38q-80 0 -205 45l31 113q4 -5 12 -14.5t30.5 -34t43 -42.5t46.5 -33.5t45 -15.5q38 0 38 85v453v4.5t-1.5 3.5t-4.5 1q-9 -1 -10.5 8t6.5 14q69 34 118 53zM114 501q-26 0 -44.5 19t-18.5 46.5t18.5 46.5
t44.5 19t44.5 -19t18.5 -46.5t-18.5 -46.5t-44.5 -19z" />
    <glyph glyph-name="k" unicode="k" horiz-adv-x="440" 
d="M403 20q5 -4 3.5 -9.5t-7.5 -5.5h-97q-16 0 -27 11.5t-11 26.5v194q0 31 -11 48.5t-33 17.5q-21 0 -32.5 -18.5t-11.5 -50.5v-178q0 -27 12 -36q5 -4 3.5 -9.5t-7.5 -5.5h-143q-7 0 -8.5 5.5t3.5 9.5q13 9 13 35v494v4.5t-1.5 3.5t-4.5 2q-9 -1 -11 8t7 13q68 34 117 54
q10 3 15 0t5 -9v-316q4 6 12 16.5t33 37t50 46.5t60.5 36.5t67.5 16.5v-105q-5 2 -14 4t-36.5 5.5t-49.5 -1.5q-33 -4 -54 -16t-42 -32q32 16 78 16q49 0 79.5 -32.5t30.5 -74.5v-170q0 -27 12 -36z" />
    <glyph glyph-name="l" unicode="l" horiz-adv-x="219" 
d="M183 20q5 -4 3.5 -9.5t-7.5 -5.5h-51q-35 0 -59.5 25t-24.5 60v459v4.5t-1.5 3.5t-4.5 2q-9 -1 -11 8t7 13q68 34 117 54q10 3 15 0t5 -9v-569q0 -27 12 -36z" />
    <glyph glyph-name="m" unicode="m" horiz-adv-x="722" 
d="M687 20q5 -4 3.5 -9.5t-7.5 -5.5h-51q-35 0 -59.5 25t-24.5 60v251q0 75 -55 75q-40 0 -76 -43v-3t0.5 -4t0.5 -3l-1 -307q0 -27 13 -36q5 -4 3.5 -9.5t-7.5 -5.5h-144q-6 0 -7.5 5.5t3.5 9.5q12 9 12 36v285q0 75 -54 75q-30 0 -60 -27v-333q0 -27 13 -36q4 -4 2.5 -9.5
t-7.5 -5.5h-143q-6 0 -7.5 5.5t3.5 9.5q12 9 12 36v356q0 26 -12 36q-5 4 -3.5 9t7.5 5h104q13 0 22 -9.5t9 -22.5v-15q56 55 132 55q39 0 67 -22.5t38 -55.5q12 16 28 31t50.5 31t73.5 16q48 0 79 -33t31 -74v-307q0 -27 12 -36z" />
    <glyph glyph-name="n" unicode="n" horiz-adv-x="479" 
d="M444 20q5 -4 3.5 -9.5t-8.5 -5.5h-50q-35 0 -60 25t-25 60v254q0 74 -54 74q-38 0 -74 -40v-322q0 -27 13 -36q4 -4 2.5 -9.5t-7.5 -5.5h-143q-6 0 -7.5 5.5t3.5 9.5q12 9 12 36v356q0 26 -12 36q-5 4 -3.5 9t7.5 5h104q13 0 22 -9.5t9 -22.5v-28q58 70 146 70
q48 0 79 -32.5t31 -74.5l-1 -309q0 -27 13 -36z" />
    <glyph glyph-name="o" unicode="o" horiz-adv-x="488" 
d="M334 26q30 14 24.5 84.5t-43 156t-85 136.5t-77 37t-24 -84.5t43 -156t84.5 -136.5t77 -37zM440.5 325.5q39.5 -91.5 10 -183t-111 -130t-167 -1t-125.5 129t-10.5 183t111 130t167.5 1t125.5 -129z" />
    <glyph glyph-name="p" unicode="p" horiz-adv-x="505" 
d="M242 24q54 0 81 56.5t27 146.5q0 105 -26 157t-67 52q-45 0 -81 -47v-337q27 -28 66 -28zM176 416q32 35 73.5 48.5t81 3t73 -38t54 -79t20.5 -116.5t-22 -114.5t-57 -76t-75.5 -38t-80 -5t-67.5 27.5v-141q0 -7 6 -7q8 2 10 -7.5t-6.5 -13.5t-50 -13.5t-68.5 -13.5
q-18 -3 -18 15v529v4.5t-1.5 3.5t-4.5 1q-9 -1 -11 8t7 14q68 34 117 53q10 4 15 1t5 -10v-35z" />
    <glyph glyph-name="q" unicode="q" horiz-adv-x="482" 
d="M309 60v374q-14 17 -46 17q-54 0 -81.5 -58t-27.5 -149q0 -105 26.5 -157.5t66.5 -52.5q33 0 62 26zM442 -119v-1q8 2 10 -7.5t-6.5 -13.5t-50 -13.5t-68.5 -13.5q-18 -3 -18 15v190q-34 -27 -73 -35t-75.5 5t-66.5 41.5t-48.5 77.5t-18.5 111q0 57 18.5 104t49 76.5
t68 45.5t78 13t76.5 -23.5t70 -4.5q20 9 29 12q10 4 15 1t5 -10v-564q0 -7 6 -6z" />
    <glyph glyph-name="r" unicode="r" horiz-adv-x="347" 
d="M176 430v-24q16 36 46 52.5t61.5 12t56.5 -26.5l-40 -96q-2 4 -5.5 10.5t-16 19.5t-25.5 20t-34 3.5t-43 -22.5v-323q0 -27 13 -36q4 -4 2.5 -9.5t-7.5 -5.5h-143q-6 0 -7.5 5.5t3.5 9.5q12 9 12 36v356q0 26 -12 36q-5 4 -3.5 9t7.5 5h104q13 0 22 -9.5t9 -22.5z" />
    <glyph glyph-name="s" unicode="s" horiz-adv-x="421" 
d="M330 224q33 -22 49.5 -52.5t12.5 -60.5t-23.5 -56t-61.5 -42t-98 -16q-34 0 -65.5 9.5t-53 23t-38 27.5t-23.5 23l-8 10l78 83q0 -3 1 -9t5.5 -23t10 -32.5t16.5 -34.5t24 -32.5t32.5 -23t41.5 -9.5q32 0 46 21t5 50t-38 50q-24 17 -76.5 54.5t-69.5 49.5
q-39 27 -52.5 68.5t-2 79t53.5 65t104 27.5q35 0 68.5 -8.5t55.5 -20t39 -23.5t25 -20l8 -8l-64 -85q-1 6 -4.5 16.5t-16.5 37t-27.5 46.5t-38.5 36.5t-51 16.5q-33 0 -50 -23.5t-8.5 -55.5t39.5 -53q19 -13 78.5 -53.5t76.5 -52.5z" />
    <glyph glyph-name="t" unicode="t" horiz-adv-x="259" 
d="M231 49q4 2 8.5 -0.5t4.5 -7t-5 -9.5q-44 -35 -83 -35q-102 0 -102 117v328h-20q-12 0 -12 10t12 10h21v73l108 68q10 4 14.5 1t4.5 -10v-132h37q12 0 12 -10t-11 -10h-38v-313q0 -22 4 -42t16 -33t29 -5z" />
    <glyph glyph-name="u" unicode="u" horiz-adv-x="480" 
d="M436 54q8 1 10 -8t-6.5 -13.5t-50 -13.5t-68.5 -14q-19 -3 -19 16v40q-1 -3 -3.5 -7t-12.5 -15.5t-23 -20t-36 -15.5t-49 -7q-60 0 -95.5 32.5t-35.5 74.5v309q0 27 -12 37q-5 3 -3.5 8.5t7.5 5.5h143q6 0 7.5 -5.5t-2.5 -8.5q-13 -10 -13 -37v-287q0 -32 17 -53.5
t48 -21.5q28 0 45.5 19t17.5 48v295q0 27 -12 37q-5 3 -3.5 8.5t7.5 5.5h143q7 0 8.5 -5.5t-3.5 -8.5q-13 -10 -13 -37v-352q1 -7 7 -6z" />
    <glyph glyph-name="v" unicode="v" horiz-adv-x="417" 
d="M398 462q4 0 6.5 -2.5t2.5 -6.5q-2 -18 -11 -47t-17.5 -51t-21 -53t-14.5 -37q-5 -12 -97 -246q-5 -14 -20 -14h-18q-15 0 -20 14q-111 277 -135 344q-5 15 -15 33t-20 34t-12 19q-2 4 0.5 8.5t7.5 4.5h113q17 0 30.5 -9t18.5 -25l103 -283q11 29 31 83q17 43 11 90.5
t-17.5 80.5t-24.5 49q-3 4 -2 9t6 5h115z" />
    <glyph glyph-name="w" unicode="w" horiz-adv-x="645" 
d="M625 462q4 0 7 -2.5t2 -6.5q-2 -18 -10.5 -47t-17.5 -51.5t-21 -53t-15 -36.5q-4 -12 -96 -246q-6 -14 -21 -14h-17q-15 0 -21 14q-45 112 -85 214q-11 -28 -26.5 -68.5t-33.5 -85.5l-24 -60q-5 -14 -20 -14h-18q-15 0 -20 14q-111 277 -135 344q-5 15 -15 33t-20 34
t-12 19q-2 4 0.5 8.5t7.5 4.5h113q17 0 30.5 -9t18.5 -25l103 -283q23 61 42 112q-30 77 -40 106q-6 15 -15.5 33t-20 34t-11.5 19q-3 4 -0.5 8.5t7.5 4.5h114q16 0 29.5 -9t19.5 -25l102 -283q12 29 32 83q17 43 11 90.5t-18 80.5t-24 49q-4 4 -2.5 9t6.5 5h114z" />
    <glyph glyph-name="x" unicode="x" horiz-adv-x="450" 
d="M437 23q5 -5 4 -11.5t-7 -6.5h-156q-8 0 -10 5.5t0 11.5q3 11 -10 35.5t-68 113.5q-16 -31 -22 -64t-3 -56t11 -33q3 -3 2 -8t-6 -5h-55.5h-59.5q-42 0 105 173q7 9 14 17q-97 157 -103 168q-28 46 -63 81q-5 6 -4 12t6 6h157q8 0 10 -5t0 -11q-4 -11 9.5 -35.5
t77.5 -129.5q19 34 27 70.5t5 61.5t-11 36q-4 4 -2.5 8.5t6.5 4.5h55h60q24 0 -18.5 -62.5t-108.5 -139.5q86 -141 95 -155q28 -46 63 -82z" />
    <glyph glyph-name="y" unicode="y" horiz-adv-x="418" 
d="M399 462q3 0 6 -2.5t2 -6.5q-2 -18 -10.5 -47t-17.5 -51t-21 -53t-15 -37q-9 -24 -62.5 -161t-55.5 -143q-31 -82 -58.5 -116.5t-77.5 -34.5q-35 0 -86 13.5t-84 26.5l-33 13l60 99q3 -5 8.5 -13.5t22.5 -29.5t34.5 -37t42.5 -29t47 -13q13 0 24.5 3.5t21.5 13t16.5 16
t14.5 22.5t11 22.5t11 25.5t9 22q-130 327 -155 398q-6 15 -15.5 33t-20 34t-11.5 19q-3 4 -0.5 8.5t7.5 4.5h114q16 0 29.5 -9t19.5 -25l102 -283q12 29 32 83q17 43 11 90.5t-18 80.5t-24 49q-4 4 -2.5 9t6.5 5h115z" />
    <glyph glyph-name="z" unicode="z" horiz-adv-x="445" 
d="M420 462q7 0 11 -6.5t0 -13.5l-249 -413h168q31 0 45 26q4 6 11.5 4.5t7.5 -8.5v-28q0 -7 -5 -12.5t-12 -5.5h-368q-11 0 -16 10t1 20l252 403h-157q-31 0 -46 -25q-3 -6 -10.5 -4.5t-7.5 8.5v27q0 8 5 13t12 5h358z" />
    <glyph glyph-name="braceleft" unicode="{" horiz-adv-x="273" 
d="M251 -100q-34 0 -61 15.5t-42 39.5t-22.5 49.5t-7.5 49.5q2 82 -1 134q-1 20 -8.5 37t-16 26t-19.5 16t-14.5 8.5t-7.5 2.5l-16 4v59l15 5q3 1 7.5 3t15.5 9.5t19.5 17.5t16 27.5t8.5 38.5q1 22 1.5 55.5t0.5 55.5l-1 22q0 24 7.5 49.5t22.5 49.5t42 39.5t61 15.5h67v-77
q-32 4 -39 4q-56 0 -56 -34v-101q-1 -3 0 -17.5t-1.5 -40t-7 -51.5t-16.5 -53t-28 -43q14 -14 25 -36t16 -42t8 -42t3.5 -31t0.5 -15v-139q0 -34 56 -34q3 0 13 1t18 2l8 1v-81h-67z" />
    <glyph glyph-name="verticalbar" unicode="|" horiz-adv-x="192" 
d="M141 -100h-91v811h91v-811z" />
    <glyph glyph-name="braceright" unicode="}" horiz-adv-x="273" 
d="M21 -100h-66v77q31 -4 39 -4q56 0 56 34v101q1 4 -0.5 18t1.5 39.5t7.5 51.5t16 53t28.5 43q-15 14 -25.5 36t-16 42t-8 42.5t-3 31.5t-0.5 14v139q0 34 -56 34l-39 -4v81h66q35 0 62 -15.5t42 -39.5t22.5 -49.5t7.5 -49.5q-2 -82 1 -133q1 -21 8.5 -38t16 -26t19 -16
t14.5 -8.5t7 -2.5l17 -4v-59l-15 -5q-3 -1 -8 -3t-15.5 -9.5t-19 -17.5t-16 -27.5t-8.5 -37.5q-1 -23 -1.5 -56.5t-0.5 -55.5l1 -22q0 -24 -7.5 -49.5t-22.5 -49.5t-42 -39.5t-62 -15.5z" />
    <glyph glyph-name="nonbreakingspace" unicode="&#xa0;" horiz-adv-x="275" 
 />
    <glyph glyph-name="exclamdown" unicode="&#xa1;" horiz-adv-x="219" 
d="M115 355q3 -21 18 -101t24 -130t17.5 -108.5t8.5 -81.5q0 -35 -21 -54.5t-56 -19.5q-28 0 -48.5 16t-20.5 58q0 54 24.5 201t40.5 220h13zM106 388q-24 0 -42.5 19t-18.5 44q0 29 18 47t45 18q26 0 45 -19.5t19 -45.5q0 -25 -20.5 -44t-45.5 -19z" />
    <glyph glyph-name="cent" unicode="&#xa2;" horiz-adv-x="507" 
d="M232 4q-61 12 -106 49.5t-66 85.5t-21.5 102.5t20 100t65.5 78.5t108 38v158h51v-159q76 -8 120.5 -51.5t47.5 -88.5q1 -13 -3.5 -27.5t-21.5 -28t-44 -13.5q-61 0 -79 70q-1 3 -3.5 14t-4 18t-5 18.5t-6.5 18.5t-7.5 16.5t-10 14.5t-12.5 8.5t-15 3t-17 -4.5
q-29 -15 -37.5 -65t3 -106t49 -106t90.5 -64q23 -5 42.5 -3t35 9.5t26.5 15.5t16 14l6 6l17 -18q-3 -5 -7.5 -12t-21.5 -25.5t-37 -33t-52.5 -26.5t-68.5 -12v-159h-51v164z" />
    <glyph glyph-name="sterling" unicode="&#xa3;" horiz-adv-x="542" 
d="M483 91l21 -63q1 -3 -2 -5q-41 -23 -97 -23q-36 0 -126 30q-96 32 -179 -25q-6 -4 -12.5 -2.5t-9.5 7.5l-24 42q-7 12 3 21q9 8 18 17t21.5 25t20 32.5t15.5 39.5t6.5 46t-6.5 51l-5 14h-88v50h74q-12 45 -15 56q-15 60 6 115t77 90.5t134 35.5q71 0 112 -39.5t67 -125.5
l-111 -23v8q0 6 -1 18t-6 38t-13.5 47t-26 37.5t-41.5 16.5q-47 0 -62 -55t7 -127q2 -6 12 -37.5t16 -51.5q0 -3 4 -3h139v-50h-125q-5 0 -4 -4q-1 -10 0 -25t-3.5 -38.5t-12 -46.5t-24.5 -48.5t-41 -45.5q-3 -3 -1.5 -6t5.5 -2q35 10 96 -4q55 -12 87.5 -12.5t47 5
t40.5 23.5q5 3 7 -3z" />
    <glyph glyph-name="yen" unicode="&#xa5;" horiz-adv-x="719" 
d="M494 631h175v-18q-3 -1 -9 -3.5t-23 -12.5t-32 -21.5t-31.5 -31t-26.5 -41.5q-11 -22 -34.5 -72.5t-41.5 -89.5l-19 -39v-16h117v-50h-116v-26q0 -8 1 -21h115v-51h-110q6 -42 18.5 -72.5t21.5 -39.5l9 -10v-16h-274v16q4 3 10.5 9.5t20 38t19.5 74.5h-111v51h115
q1 14 1 21v26h-116v50h116v1l-101 181q-19 33 -40 60.5t-37.5 42.5t-30.5 25t-22 14l-8 3v18h321v-16q-2 -1 -6 -3.5t-11.5 -12t-11 -22t0 -35t17.5 -48.5l68 -129q4 -8 13 -8t13 8l65 142q10 24 11.5 43.5t-4 31t-13 19.5t-13.5 10l-6 3v17z" />
    <glyph glyph-name="section" unicode="&#xa7;" horiz-adv-x="535" 
d="M344 222q17 -2 27 8.5t10 27.5q0 7 -2.5 14.5t-8.5 14.5t-11.5 13t-15.5 13t-16 11t-19 11t-18 10t-18.5 9.5t-15.5 7.5q-23 12 -43 17.5t-34.5 6t-25 -3.5t-15.5 -11t-5 -16q0 -23 46.5 -55.5t96.5 -54t68 -23.5zM165 630q0 -20 24 -40t60.5 -36t79 -37.5t79 -44
t60.5 -56.5t24 -73q0 -54 -32 -92t-85 -57q85 -57 85 -130q0 -51 -30.5 -89.5t-76.5 -56.5t-99 -18q-39 0 -86.5 6.5t-76.5 12.5l-29 7v168h22q3 -7 9.5 -18t27 -39.5t41.5 -50.5t53 -40t64 -18q33 0 51.5 14t18.5 37q0 24 -22.5 45.5t-56.5 36.5t-73.5 35.5t-73.5 41
t-56.5 54t-22.5 74.5q0 58 32 95t84 52q-84 55 -84 131q0 42 17 74t46 50t61.5 26.5t67.5 8.5q30 0 76 -9.5t76 -19.5l31 -9l-1 -163h-19q-3 7 -10 17.5t-29 37.5t-46 47.5t-60 37.5t-73 17q-18 0 -33 -7.5t-15 -21.5z" />
    <glyph glyph-name="copyright" unicode="&#xa9;" horiz-adv-x="713" 
d="M411 206q26 -6 49.5 2t34 18t10.5 12l13 -14q-2 -3 -5.5 -8.5t-16.5 -19.5t-28 -25t-39.5 -19.5t-51.5 -8.5q-103 0 -154 82q-43 70 -22 148q21 80 97 105q27 9 59 9q87 0 128 -59q30 -42 13 -75q-13 -24 -46 -24q-46 0 -59 53q-1 2 -2.5 10t-3 13.5t-4 14t-5 14t-6 12.5
t-7.5 10.5t-9 6.5t-11 2.5t-13 -3.5q-22 -11 -28.5 -48.5t2.5 -79.5t37 -80t68 -48zM356.5 28q118.5 0 202.5 84t84 202.5t-84 203t-202.5 84.5t-202.5 -84.5t-84 -203t84 -202.5t202.5 -84zM356.5 630q130.5 0 223 -92.5t92.5 -222.5t-92.5 -222.5t-223 -92.5t-223 92.5
t-92.5 222.5t92.5 222.5t223 92.5z" />
    <glyph glyph-name="guillemotleft" unicode="&#xab;" horiz-adv-x="501" 
d="M469 436l-141 -167l141 -169h-113l-142 166l-2 2q0 2 2 4l143 164h112zM289 436l-141 -167l141 -169h-113l-142 166q-2 1 -2 2q0 2 2 4l144 164h111z" />
    <glyph glyph-name="softhyphen" unicode="&#xad;" horiz-adv-x="0" 
 />
    <glyph glyph-name="registered" unicode="&#xae;" horiz-adv-x="482" 
d="M217 492q26 2 40.5 19t14.5 47q0 62 -55 65v-131zM323 443q14 -20 27 -32t20 -13l6 -2v-7h-121v7q15 9 3.5 41.5t-26.5 42.5q-8 4 -12.5 1.5t-4.5 -9.5q0 -29 5.5 -48t10.5 -24l5 -4v-6h-105v6q2 1 5.5 5.5t9.5 24.5t6 49v72q0 29 -5.5 49t-10.5 25l-5 5v6l101 1
q50 0 77.5 -20t27.5 -55q0 -29 -20.5 -46.5t-50.5 -24.5q34 -10 57 -44zM241 319q76 0 130 54t54 130t-54 130t-130 54t-130 -54t-54 -130t54 -130t130 -54zM241 705q84 0 143 -59t59 -143t-59 -143.5t-143 -59.5t-143.5 59.5t-59.5 143.5t59.5 143t143.5 59z" />
    <glyph glyph-name="degree" unicode="&#xb0;" horiz-adv-x="288" 
d="M143 553q27 0 44 17t17 46q0 26 -17.5 44t-43.5 18t-42.5 -17.5t-16.5 -44.5q0 -29 16 -46t43 -17zM143 731q48 0 81 -33.5t33 -81.5q0 -50 -32.5 -83t-81.5 -33q-48 0 -79.5 33t-31.5 83q0 49 31.5 82t79.5 33z" />
    <glyph glyph-name="periodcentered" unicode="&#xb7;" horiz-adv-x="188" 
d="M94 322q25 0 43.5 -17t18.5 -42q0 -24 -18.5 -43.5t-43.5 -19.5q-28 0 -45 19.5t-17 43.5q0 25 18 42t44 17z" />
    <glyph glyph-name="guillemotright" unicode="&#xbb;" horiz-adv-x="501" 
d="M466 271l3 -3q0 -1 -3 -3l-143 -165h-111l141 168l-141 168h113zM289 268q0 -1 -2 -3l-144 -165h-111l141 168l-141 168h113l142 -165q2 -2 2 -3z" />
    <glyph glyph-name="questiondown" unicode="&#xbf;" horiz-adv-x="349" 
d="M388 -1l19 1q-27 -63 -78 -101.5t-119 -38.5q-75 0 -128.5 43.5t-53.5 112.5q1 36 17 69t40.5 56.5t52.5 50t52 49.5t39.5 54.5t15.5 66.5h21q0 -51 -14 -100.5t-31 -81t-31 -68t-14 -63.5q0 -49 29.5 -77.5t69.5 -28.5q32 0 64 15t49 41zM256 386q-25 0 -43 18t-18 43
t17.5 43t43.5 18q25 0 43 -18.5t18 -44.5q0 -24 -19 -41.5t-42 -17.5z" />
    <glyph glyph-name="Agrave" unicode="&#xc0;" horiz-adv-x="556" 
d="M205 491q-45 -105 -59 -148.5t-20 -92.5h171zM555 14q3 -4 0.5 -8.5t-8.5 -4.5h-118q-17 0 -31 9t-19 25l-75 195h-180q-7 -72 3 -135t23 -80q4 -4 2.5 -9t-6.5 -5h-133q-4 0 -6.5 2.5t-2.5 6.5q2 17 11 46.5t18 51.5t22 53t16 37q1 5 8 21.5t11 27.5v3h1
q118 297 147 368q6 13 22 13h18q16 0 21 -13q23 -55 107 -264.5t100 -253.5q6 -15 16 -33t21 -34t12 -19zM281 670h-32l-103 117h80z" />
    <glyph glyph-name="Aacute" unicode="&#xc1;" horiz-adv-x="556" 
d="M205 491q-45 -105 -59 -148.5t-20 -92.5h171zM555 14q3 -4 0.5 -8.5t-8.5 -4.5h-118q-17 0 -31 9t-19 25l-75 195h-180q-7 -72 3 -135t23 -80q4 -4 2.5 -9t-6.5 -5h-133q-4 0 -6.5 2.5t-2.5 6.5q2 17 11 46.5t18 51.5t22 53t16 37q1 5 8 21.5t11 27.5v3h1
q118 297 147 368q6 13 22 13h18q16 0 21 -13q23 -55 107 -264.5t100 -253.5q6 -15 16 -33t21 -34t12 -19zM385 787l-102 -117h-33l55 117h80z" />
    <glyph glyph-name="Acircumflex" unicode="&#xc2;" horiz-adv-x="556" 
d="M205 491q-45 -105 -59 -148.5t-20 -92.5h171zM555 14q3 -4 0.5 -8.5t-8.5 -4.5h-118q-17 0 -31 9t-19 25l-75 195h-180q-7 -72 3 -135t23 -80q4 -4 2.5 -9t-6.5 -5h-133q-4 0 -6.5 2.5t-2.5 6.5q2 17 11 46.5t18 51.5t22 53t16 37q1 5 8 21.5t11 27.5v3h1
q118 297 147 368q6 13 22 13h18q16 0 21 -13q23 -55 107 -264.5t100 -253.5q6 -15 16 -33t21 -34t12 -19zM269 754l-49 -84h-51l72 117h57l72 -117h-51z" />
    <glyph glyph-name="Atilde" unicode="&#xc3;" horiz-adv-x="556" 
d="M205 491q-45 -105 -59 -148.5t-20 -92.5h171zM555 14q3 -4 0.5 -8.5t-8.5 -4.5h-118q-17 0 -31 9t-19 25l-75 195h-180q-7 -72 3 -135t23 -80q4 -4 2.5 -9t-6.5 -5h-133q-4 0 -6.5 2.5t-2.5 6.5q2 17 11 46.5t18 51.5t22 53t16 37q1 5 8 21.5t11 27.5v3h1
q118 297 147 368q6 13 22 13h18q16 0 21 -13q23 -55 107 -264.5t100 -253.5q6 -15 16 -33t21 -34t12 -19zM215 714q-14 0 -27 -8t-19 -16l-6 -7v47l6 6t20.5 11t36.5 7t51 -14.5t49 -14.5q11 0 23.5 7t20.5 15l7 7v-45q-16 -15 -28 -18.5t-37 -3.5q-15 -1 -48 13t-49 14z
" />
    <glyph glyph-name="Adieresis" unicode="&#xc4;" horiz-adv-x="556" 
d="M205 491q-45 -105 -59 -148.5t-20 -92.5h171zM555 14q3 -4 0.5 -8.5t-8.5 -4.5h-118q-17 0 -31 9t-19 25l-75 195h-180q-7 -72 3 -135t23 -80q4 -4 2.5 -9t-6.5 -5h-133q-4 0 -6.5 2.5t-2.5 6.5q2 17 11 46.5t18 51.5t22 53t16 37q1 5 8 21.5t11 27.5v3h1
q118 297 147 368q6 13 22 13h18q16 0 21 -13q23 -55 107 -264.5t100 -253.5q6 -15 16 -33t21 -34t12 -19zM336 670q-19 0 -31 12.5t-12 32.5q0 19 12 31.5t30.5 12.5t31 -13t12.5 -31q0 -20 -12 -32.5t-31 -12.5zM221 670q-19 0 -31 12.5t-12 32.5q0 19 12 31.5t31 12.5
t31.5 -13t12.5 -31q0 -20 -12.5 -32.5t-31.5 -12.5z" />
    <glyph glyph-name="Aring" unicode="&#xc5;" horiz-adv-x="556" 
d="M205 491q-45 -106 -59 -149t-20 -93h171zM555 14q3 -5 0.5 -9.5t-8.5 -4.5h-118q-17 0 -31 9.5t-19 24.5l-75 195h-180q-7 -72 3 -135t23 -80q4 -4 2.5 -9t-6.5 -5h-133q-4 0 -6.5 2.5t-2.5 6.5q2 18 11 47t18 51.5t22 53t16 36.5q1 5 8 21.5t11 27.5v3h1
q118 297 147 368q6 13 22 13h18q16 0 21 -13q23 -54 107 -264t100 -254q6 -15 16 -32.5t21 -34t12 -18.5zM263.5 763q-16.5 0 -28 -11.5t-11.5 -27.5t11.5 -27.5t28 -11.5t28 11.5t11.5 27.5t-11.5 27.5t-28 11.5zM263.5 647q-31.5 0 -54 22.5t-22.5 54.5t22.5 54.5t54 22.5
t54.5 -22.5t23 -54.5t-23 -54.5t-54.5 -22.5z" />
    <glyph glyph-name="AE" unicode="&#xc6;" horiz-adv-x="733" 
d="M126 250h144v325l-13 -10q-33 -28 -50 -68q-47 -112 -61 -153.5t-20 -93.5zM722 46v-27q0 -8 -5 -13t-12 -5h-444q-6 0 -7.5 5t3.5 9q12 9 13 35v180h-146q-7 -72 3 -135t23 -80q4 -4 2.5 -9t-6.5 -5h-133q-4 0 -6.5 2.5t-2.5 6.5q2 17 11 46.5t18 51.5t22 53t16 37
q1 4 8 21t11 28v3h1q118 296 147 368q2 3 6.5 6.5t8.5 5.5l4 1h435q7 0 12 -5t5 -13v-27q0 -7 -8 -9t-11 5q-15 25 -48 25h-241v-272h169q33 0 48 25q3 7 11 5.5t8 -8.5v-69q0 -7 -8 -8.5t-11 4.5q-15 25 -48 25h-169v-284h254q33 0 48 25q3 6 11 4.5t8 -8.5z" />
    <glyph glyph-name="Ccedilla" unicode="&#xc7;" horiz-adv-x="612" 
d="M24 314q0 144 80 236.5t219 92.5q172 0 246 -150l-117 -36q-17 86 -66 132.5t-115 32.5q-32 -6 -58 -34t-42 -69t-22.5 -91t-3 -101t19.5 -99t42.5 -85.5t69.5 -60t96 -22.5q42 0 78.5 14.5t59.5 35.5t40 41.5t24 35.5l7 15l19 -9q-3 -8 -9.5 -21t-29.5 -46.5t-50.5 -59
t-75 -48t-100.5 -24.5l-6 -31q4 -1 9 -3t17.5 -10t21 -18t14 -26t1.5 -35q-5 -23 -23.5 -37.5t-40.5 -18.5t-44 -5t-36 2l-15 2l4 39q4 -1 10.5 -1.5t24 -1t31 1.5t26 9t14.5 19q5 19 -13 33t-37 18l-20 3l9 63q-59 8 -106 35t-74.5 61.5t-46 77t-25.5 77.5t-7 66z" />
    <glyph glyph-name="Egrave" unicode="&#xc8;" horiz-adv-x="516" 
d="M506 46v-27q0 -8 -5.5 -13t-12.5 -5h-444q-6 0 -7.5 5t3.5 9q12 9 13 35v531q0 26 -13 36q-13 9 4 14h431q7 0 12.5 -5t5.5 -13v-27q0 -7 -8 -9t-12 5q-15 25 -47 25h-241v-272h168q33 0 48 25q3 7 11 5.5t8 -8.5v-69q0 -7 -8 -8.5t-11 4.5q-15 25 -48 25h-168v-284h254
q32 0 47 25q4 6 12 4.5t8 -8.5zM322 670h-33l-102 117h80z" />
    <glyph glyph-name="Eacute" unicode="&#xc9;" horiz-adv-x="516" 
d="M506 46v-27q0 -8 -5.5 -13t-12.5 -5h-444q-6 0 -7.5 5t3.5 9q12 9 13 35v531q0 26 -13 36q-13 9 4 14h431q7 0 12.5 -5t5.5 -13v-27q0 -7 -8 -9t-12 5q-15 25 -47 25h-241v-272h168q33 0 48 25q3 7 11 5.5t8 -8.5v-69q0 -7 -8 -8.5t-11 4.5q-15 25 -48 25h-168v-284h254
q32 0 47 25q4 6 12 4.5t8 -8.5zM380 787l-102 -117h-32l55 117h79z" />
    <glyph glyph-name="Ecircumflex" unicode="&#xca;" horiz-adv-x="516" 
d="M506 46v-27q0 -8 -5.5 -13t-12.5 -5h-444q-6 0 -7.5 5t3.5 9q12 9 13 35v531q0 26 -13 36q-13 9 4 14h431q7 0 12.5 -5t5.5 -13v-27q0 -7 -8 -9t-12 5q-15 25 -47 25h-241v-272h168q33 0 48 25q3 7 11 5.5t8 -8.5v-69q0 -7 -8 -8.5t-11 4.5q-15 25 -48 25h-168v-284h254
q32 0 47 25q4 6 12 4.5t8 -8.5zM273 753l-49 -84h-51l72 118h57l72 -118h-51z" />
    <glyph glyph-name="Edieresis" unicode="&#xcb;" horiz-adv-x="516" 
d="M506 46v-27q0 -8 -5.5 -13t-12.5 -5h-444q-6 0 -7.5 5t3.5 9q12 9 13 35v531q0 26 -13 36q-13 9 4 14h431q7 0 12.5 -5t5.5 -13v-27q0 -7 -8 -9t-12 5q-15 25 -47 25h-241v-272h168q33 0 48 25q3 7 11 5.5t8 -8.5v-69q0 -7 -8 -8.5t-11 4.5q-15 25 -48 25h-168v-284h254
q32 0 47 25q4 6 12 4.5t8 -8.5zM330.5 670q-18.5 0 -30.5 12.5t-12 32.5q0 19 12 31.5t30.5 12.5t31 -13t12.5 -31q0 -20 -12.5 -32.5t-31 -12.5zM216 670q-19 0 -31 12.5t-12 32.5q0 19 12 31.5t30.5 12.5t31.5 -13t13 -31q0 -20 -12.5 -32.5t-31.5 -12.5z" />
    <glyph glyph-name="Igrave" unicode="&#xcc;" horiz-adv-x="239" 
d="M185 51q0 -26 13 -36q5 -4 3.5 -9t-7.5 -5h-149q-6 0 -8 5t3 9q13 9 13 35v531q0 26 -13 36q-5 4 -3.5 9t8.5 5h149q6 0 7.5 -5t-3.5 -9q-12 -9 -13 -35v-531zM150 670h-32l-102 117h80z" />
    <glyph glyph-name="Iacute" unicode="&#xcd;" horiz-adv-x="238" 
d="M198 617q-13 -9 -13 -35v-531q0 -26 13 -36q5 -4 3.5 -9t-8.5 -5h-149q-6 0 -7.5 5t3.5 9q12 9 13 35v531q0 26 -13 36q-5 4 -3.5 9t7.5 5h149q7 0 8.5 -5t-3.5 -9zM246 787l-102 -117h-32l55 117h79z" />
    <glyph glyph-name="Icircumflex" unicode="&#xce;" horiz-adv-x="239" 
d="M198 617q-12 -9 -13 -35v-531q0 -26 13 -36q5 -4 3.5 -9t-7.5 -5h-149q-6 0 -8 5t3 9q13 9 13 35l1 531q0 26 -14 36q-5 4 -3 9t8 5h149q6 0 7.5 -5t-3.5 -9zM119 754l-49 -84h-51l72 117h57l72 -117h-51z" />
    <glyph glyph-name="Idieresis" unicode="&#xcf;" horiz-adv-x="238" 
d="M198 617q-13 -9 -13 -35l-1 -531q0 -26 14 -36q5 -4 3 -9t-8 -5h-149q-6 0 -7.5 5t3.5 9q12 9 13 35v531q0 26 -13 36q-5 4 -3.5 9t7.5 5h149q6 0 7.5 -5t-2.5 -9zM104 715q0 -20 -12.5 -32.5t-31 -12.5t-30.5 12.5t-12 32.5q0 19 12 31.5t30.5 12.5t31 -13t12.5 -31z
M175.5 759q18.5 0 31 -13t12.5 -31q0 -20 -12.5 -32.5t-31.5 -12.5t-30.5 12.5t-11.5 32.5q0 19 12 31.5t30.5 12.5z" />
    <glyph glyph-name="Ntilde" unicode="&#xd1;" horiz-adv-x="595" 
d="M545 611l1 -610h-23l-445 556v-85q0 -51 7.5 -103t20 -95.5t27 -82.5t31 -70.5t28.5 -53t22 -37.5l10 -16q3 -5 0.5 -9t-7.5 -4h-31h-60h-50q-9 0 -14.5 5.5t-5.5 14.5l-4 540q0 12 -2 21.5t-4 13.5t-7 12t-6 10q-2 5 0.5 9t7.5 4h155l323 -402q-4 44 -14 88.5
t-22.5 81.5t-26 70t-27.5 59.5t-24.5 44.5t-19 31t-9.5 14q-2 5 0.5 9t7.5 4h141q8 0 14 -5.5t6 -14.5zM234 713q-14 0 -27.5 -7.5t-19.5 -15.5l-6 -8v47l7 7t20.5 10.5t35.5 6.5q21 0 52 -14t49 -14q10 0 23 7t21 14l7 7v-45q-16 -14 -28 -18t-37 -4q-16 0 -49 13.5
t-48 13.5z" />
    <glyph glyph-name="Ograve" unicode="&#xd2;" horiz-adv-x="698" 
d="M470 31.5q67 28.5 79 132t-37.5 221t-132 181t-149.5 35t-79 -131.5t37.5 -221t132 -181.5t149.5 -35zM337.5 643q88.5 0 165 -44t123 -119t50 -164t-38 -164t-115 -118.5t-162 -43.5t-165.5 43.5t-123.5 119t-49.5 164t38 164t115 119t162.5 43.5zM416 670h-32l-102 117
h79z" />
    <glyph glyph-name="Oacute" unicode="&#xd3;" horiz-adv-x="698" 
d="M470 31.5q67 28.5 79 132t-37.5 221t-132 181t-149.5 35t-79 -131.5t37.5 -221t132 -181.5t149.5 -35zM337.5 643q88.5 0 165 -44t123 -119t50 -164t-38 -164t-115 -118.5t-162 -43.5t-165.5 43.5t-123.5 119t-49.5 164t38 164t115 119t162.5 43.5zM445 787l-102 -117
h-32l55 117h79z" />
    <glyph glyph-name="Ocircumflex" unicode="&#xd4;" horiz-adv-x="698" 
d="M470 31.5q67 28.5 79 132t-37.5 221t-132 181t-149.5 35t-79 -131.5t37.5 -221t132 -181.5t149.5 -35zM337.5 643q88.5 0 165 -44t123 -119t50 -164t-38 -164t-115 -118.5t-162 -43.5t-165.5 43.5t-123.5 119t-49.5 164t38 164t115 119t162.5 43.5zM349 754l-50 -84h-51
l72 117h57l72 -117h-50z" />
    <glyph glyph-name="Otilde" unicode="&#xd5;" horiz-adv-x="698" 
d="M470 31.5q67 28.5 79 132t-37.5 221t-132 181t-149.5 35t-79 -131.5t37.5 -221t132 -181.5t149.5 -35zM337.5 643q88.5 0 165 -44t123 -119t50 -164t-38 -164t-115 -118.5t-162 -43.5t-165.5 43.5t-123.5 119t-49.5 164t38 164t115 119t162.5 43.5zM294 713
q-14 0 -27.5 -7.5t-19.5 -15.5l-6 -8v47l7 7t20.5 10.5t35.5 6.5q21 0 52 -14t49 -14q10 0 23 7t21 14l7 7v-45q-16 -14 -28 -18t-37 -4q-16 0 -49 13.5t-48 13.5z" />
    <glyph glyph-name="Odieresis" unicode="&#xd6;" horiz-adv-x="698" 
d="M470 31.5q67 28.5 79 132t-37.5 221t-132 181t-149.5 35t-79 -131.5t37.5 -221t132 -181.5t149.5 -35zM337.5 643q88.5 0 165 -44t123 -119t50 -164t-38 -164t-115 -118.5t-162 -43.5t-165.5 43.5t-123.5 119t-49.5 164t38 164t115 119t162.5 43.5zM405 670
q-19 0 -30.5 12.5t-11.5 32.5q0 19 11.5 31.5t30.5 12.5t31.5 -13t12.5 -31q0 -20 -12.5 -32.5t-31.5 -12.5zM290 670q-19 0 -30.5 12.5t-11.5 32.5q0 19 12 31.5t30.5 12.5t31 -13t12.5 -31q0 -20 -12.5 -32.5t-31.5 -12.5z" />
    <glyph glyph-name="multiply" unicode="&#xd7;" horiz-adv-x="402" 
d="M367 379l-124 -124l112 -113l-28 -28l-112 113l-128 -127l-53 53l127 128l-113 112l28 28l113 -113l124 125z" />
    <glyph glyph-name="Oslash" unicode="&#xd8;" horiz-adv-x="706" 
d="M474 31q49 20 69.5 83t7.5 149t-59 169l-249 -278q53 -76 116.5 -110.5t114.5 -12.5zM234 600q-48 -21 -69 -83t-8 -147.5t58 -168.5l248 277q-52 75 -115 109t-114 13zM585 536q49 -51 72.5 -113.5t22 -122t-24.5 -116.5t-63.5 -100t-99.5 -69t-127 -26q-114 0 -206 71
l-75 -84l-40 35l76 84q-48 51 -72 113.5t-22.5 122t25 116.5t63.5 100t99.5 69t127.5 26q114 0 205 -71l76 84l39 -35z" />
    <glyph glyph-name="Ugrave" unicode="&#xd9;" horiz-adv-x="575" 
d="M536 631q7 0 8.5 -5t-3.5 -9q-13 -10 -13 -36v-319q0 -137 -61.5 -201t-168.5 -64q-64 0 -111.5 18t-74 45t-42 67.5t-20.5 76.5t-5 80l1 297q0 26 -13 36q-5 4 -3.5 9t7.5 5h149q7 0 8.5 -5t-3.5 -9q-13 -10 -13 -36v-317q0 -240 163 -240q73 0 120.5 60.5t47.5 175.5
v321q0 26 -13 36q-5 4 -3.5 9t8.5 5h35zM339 670h-32l-103 117h80z" />
    <glyph glyph-name="Uacute" unicode="&#xda;" horiz-adv-x="575" 
d="M536 631q7 0 8.5 -5t-3.5 -9q-13 -10 -13 -36v-319q0 -137 -61.5 -201t-168.5 -64q-64 0 -111.5 18t-74 45t-42 67.5t-20.5 76.5t-5 80l1 297q0 26 -13 36q-5 4 -3.5 9t7.5 5h149q7 0 8.5 -5t-3.5 -9q-13 -10 -13 -36v-317q0 -240 163 -240q73 0 120.5 60.5t47.5 175.5
v321q0 26 -13 36q-5 4 -3.5 9t8.5 5h35zM435 787l-103 -117h-32l55 117h80z" />
    <glyph glyph-name="Ucircumflex" unicode="&#xdb;" horiz-adv-x="575" 
d="M536 632q7 0 8.5 -5t-3.5 -9q-13 -10 -13 -36v-320q0 -136 -61.5 -200t-168.5 -64q-64 0 -111.5 18t-74 45t-42 67.5t-20.5 76.5t-5 80l1 297q0 26 -13 36q-5 4 -3.5 9t7.5 5h149q7 0 8.5 -5t-3.5 -9q-13 -10 -13 -36v-317q0 -240 163 -240q73 0 120.5 60t47.5 176v320
q0 27 -13 37q-5 4 -3.5 9t8.5 5h35zM304 754l-50 -84h-51l73 117h56l72 -117h-50z" />
    <glyph glyph-name="Udieresis" unicode="&#xdc;" horiz-adv-x="575" 
d="M536 632q7 0 8.5 -5t-3.5 -9q-13 -10 -13 -36v-320q0 -136 -61.5 -200t-168.5 -64q-64 0 -111.5 18t-74 45t-42 67.5t-20.5 76.5t-5 80l1 297q0 26 -13 36q-5 4 -3.5 9t7.5 5h149q7 0 8.5 -5t-3.5 -9q-13 -10 -13 -36v-317q0 -240 163 -240q73 0 120.5 60t47.5 176v320
q0 27 -13 37q-5 4 -3.5 9t8.5 5h35zM344 669q-19 0 -31 12.5t-12 31.5t12 32t30.5 13t31.5 -13t13 -32t-12.5 -31.5t-31.5 -12.5zM229 669q-19 0 -31 12.5t-12 31.5t12 32t31 13t31.5 -13t12.5 -32t-12.5 -31.5t-31.5 -12.5z" />
    <glyph glyph-name="Yacute" unicode="&#xdd;" horiz-adv-x="515" 
d="M322 52q0 -26 13 -36q5 -4 3.5 -9t-8.5 -5h-148q-7 0 -8.5 5t3.5 9q13 9 13 35v287q-116 182 -139.5 216.5t-50.5 60.5q-5 5 -4 11.5t7 6.5h162q8 0 10.5 -5.5t0.5 -10.5q-4 -12 20 -53t125 -201q26 29 43 71.5t23 79.5t5 66.5t-9 39.5q-3 4 -2 8.5t7 4.5h56.5h62.5
q9 0 9 -9q0 -35 -66 -127.5t-128 -158.5v-286zM371 786l-103 -117h-32l55 117h80z" />
    <glyph glyph-name="germandbls" unicode="&#xdf;" horiz-adv-x="579" 
d="M423 356q34 -13 64 -40t51 -64t19.5 -86t-31.5 -98q-33 -54 -90.5 -68t-113.5 10.5t-91 75.5l73 64q17 -26 46.5 -49.5t60 -37.5t58 -12t39.5 24q24 44 -3.5 91.5t-92 78.5t-139.5 31v19q29 96 50 187q6 27 8 50t-1.5 46t-18.5 36.5t-41 13.5q-22 0 -38 -11t-24 -26
t-12.5 -39.5t-5.5 -43.5t-1 -46v-465h-143v444q0 54 20 94.5t52.5 63t67.5 33t71 10.5q22 0 45 -4.5t49.5 -15.5t46 -32.5t32.5 -51.5t11.5 -77t-18.5 -105z" />
    <glyph glyph-name="agrave" unicode="&#xe0;" 
d="M309 52v374q-14 18 -46 18q-54 0 -81.5 -58.5t-27.5 -149.5q0 -105 26.5 -157.5t66.5 -52.5q33 0 62 26zM372 -2q-36 0 -63 34q-33 -29 -71.5 -38t-75.5 4t-67.5 41.5t-49 78.5t-18.5 111q0 57 18.5 104.5t49 76.5t68 45t78.5 13t76.5 -23.5t69.5 -4.5q20 9 29 13
q10 3 15 0t5 -10v-418q0 -7 6 -6q5 1 7.5 -4.5t0.5 -11t-8 -5.5h-70zM306 511h-32l-102 117h79z" />
    <glyph glyph-name="aacute" unicode="&#xe1;" 
d="M309 52v374q-14 18 -46 18q-54 0 -81.5 -58.5t-27.5 -149.5q0 -105 26.5 -157.5t66.5 -52.5q33 0 62 26zM372 -2q-36 0 -63 34q-33 -29 -71.5 -38t-75.5 4t-67.5 41.5t-49 78.5t-18.5 111q0 57 18.5 104.5t49 76.5t68 45t78.5 13t76.5 -23.5t69.5 -4.5q20 9 29 13
q10 3 15 0t5 -10v-418q0 -7 6 -6q5 1 7.5 -4.5t0.5 -11t-8 -5.5h-70zM342 628l-102 -117h-32l55 117h79z" />
    <glyph glyph-name="acircumflex" unicode="&#xe2;" 
d="M309 52v374q-14 18 -46 18q-54 0 -81.5 -58.5t-27.5 -149.5q0 -105 26.5 -157.5t66.5 -52.5q33 0 62 26zM372 -2q-36 0 -63 34q-33 -29 -71.5 -38t-75.5 4t-67.5 41.5t-49 78.5t-18.5 111q0 57 18.5 104.5t49 76.5t68 45t78.5 13t76.5 -23.5t69.5 -4.5q20 9 29 13
q10 3 15 0t5 -10v-418q0 -7 6 -6q5 1 7.5 -4.5t0.5 -11t-8 -5.5h-70zM255 595l-50 -84h-51l72 117h57l72 -117h-51z" />
    <glyph glyph-name="atilde" unicode="&#xe3;" 
d="M309 52v374q-14 18 -46 18q-54 0 -81.5 -58.5t-27.5 -149.5q0 -105 26.5 -157.5t66.5 -52.5q33 0 62 26zM372 -2q-36 0 -63 34q-33 -29 -71.5 -38t-75.5 4t-67.5 41.5t-49 78.5t-18.5 111q0 57 18.5 104.5t49 76.5t68 45t78.5 13t76.5 -23.5t69.5 -4.5q20 9 29 13
q10 3 15 0t5 -10v-418q0 -7 6 -6q5 1 7.5 -4.5t0.5 -11t-8 -5.5h-70zM207 555q-15 0 -28 -8t-19 -16l-6 -7v47q2 2 6.5 6t21 10.5t35.5 6.5q21 0 52 -14t49 -14q10 0 23 7t20 14l8 7v-44q-16 -15 -28 -18.5t-37 -3.5q-16 -1 -49 13t-48 14z" />
    <glyph glyph-name="adieresis" unicode="&#xe4;" 
d="M309 52v374q-14 18 -46 18q-54 0 -81.5 -58.5t-27.5 -149.5q0 -105 26.5 -157.5t66.5 -52.5q33 0 62 26zM372 -2q-36 0 -63 34q-33 -29 -71.5 -38t-75.5 4t-67.5 41.5t-49 78.5t-18.5 111q0 57 18.5 104.5t49 76.5t68 45t78.5 13t76.5 -23.5t69.5 -4.5q20 9 29 13
q10 3 15 0t5 -10v-418q0 -7 6 -6q5 1 7.5 -4.5t0.5 -11t-8 -5.5h-70zM310 511q-19 0 -31 12.5t-12 31.5t12 32t31 13t31.5 -13t12.5 -32t-12.5 -31.5t-31.5 -12.5zM195 511q-19 0 -30.5 12.5t-11.5 31.5t11.5 32t30.5 13t31.5 -13t12.5 -32t-12.5 -31.5t-31.5 -12.5z" />
    <glyph glyph-name="aring" unicode="&#xe5;" 
d="M309 52v374q-14 18 -46 18q-54 0 -81.5 -58.5t-27.5 -149.5q0 -105 26.5 -157.5t66.5 -52.5q33 0 62 26zM372 -2q-36 0 -63 34q-33 -29 -71.5 -38t-75.5 4t-67.5 41.5t-49 78.5t-18.5 111q0 57 18.5 104.5t49 76.5t68 45t78.5 13t76.5 -23.5t69.5 -4.5q20 9 29 13
q10 3 15 0t5 -10v-418q0 -7 6 -6q5 1 7.5 -4.5t0.5 -11t-8 -5.5h-70zM260 605q-16 0 -27.5 -11.5t-11.5 -28t11.5 -28t27.5 -11.5t27.5 11.5t11.5 28t-11.5 28t-27.5 11.5zM260 489q-32 0 -54.5 22.5t-22.5 54t22.5 54t54.5 22.5t54.5 -22.5t22.5 -54t-22.5 -54t-54.5 -22.5
z" />
    <glyph glyph-name="ae" unicode="&#xe6;" horiz-adv-x="770" 
d="M534 446q-43 0 -65.5 -35t-23 -80t9 -87t25.5 -56q67 0 106 71q34 65 19 127q-15 60 -71 60zM309 52v374q-14 18 -46 18q-54 0 -81.5 -58.5t-27.5 -149.5q0 -105 26.5 -157.5t66.5 -52.5q33 0 62 26zM372 -2q-36 0 -63 34q-33 -29 -71.5 -38t-75.5 4t-67.5 41.5t-49 78.5
t-18.5 111q0 57 18.5 104.5t49 76.5t68 45t78.5 13.5t76.5 -23.5t69.5 -5q20 9 29 13q10 3 15 0t5 -10v-2q50 28 114 28q86 0 138 -43t52 -102q0 -50 -40 -85.5t-96 -51t-118 -15.5q3 -5 8 -13t21.5 -29t35 -37t46.5 -29t57 -13q47 0 77 41q3 3 6.5 2.5t5.5 -4t0 -8.5
q-19 -36 -72 -62t-123 -26q-53 0 -99 21q3 -5 1 -11t-8 -6h-70z" />
    <glyph glyph-name="ccedilla" unicode="&#xe7;" horiz-adv-x="449" 
d="M422 97q1 2 4 1t4 -3.5t0 -5.5q-26 -40 -74 -68t-115 -25q-2 1 -4 1l-2 -17q3 0 9 -1.5t20.5 -7.5t24.5 -15.5t16 -27t0 -40.5q-5 -26 -23.5 -41.5t-40.5 -20.5t-43 -6t-35 1l-14 3l3 42q5 -1 11.5 -2t25 -1t32.5 2t27 9.5t15 20.5q4 22 -16.5 33t-42.5 12l-22 1l9 61
l14 -1q-84 15 -131.5 76.5t-47.5 156.5q0 103 62.5 170t158.5 67q68 0 109 -27.5t75 -87.5l-107 -40q0 2 -1 5.5t-4 15t-7 22t-10 24t-13.5 24.5t-18 21t-22 15t-26.5 5t-31 -7q-27 -11 -38.5 -47.5t-8.5 -79t16 -81.5q29 -87 78 -132t98 -45q48 0 86 41z" />
    <glyph glyph-name="egrave" unicode="&#xe8;" horiz-adv-x="473" 
d="M237 443q-43 0 -65.5 -35t-23 -80t9 -87t25.5 -56q67 0 106 71q34 65 19 127q-15 60 -71 60zM434 89q3 3 6.5 2.5t6 -4t-0.5 -7.5q-19 -37 -72 -63t-123 -26q-49 0 -89.5 16.5t-67 44t-44.5 63t-22 74.5t0 78.5t22.5 75t45 63t67.5 44t90 16.5q86 0 138 -43t52 -102
q0 -50 -40 -85.5t-96 -51t-118 -15.5q3 -5 8 -13t21.5 -29t35 -37t46.5 -29t57 -13q47 0 77 41zM289 513h-32l-103 117h80z" />
    <glyph glyph-name="eacute" unicode="&#xe9;" horiz-adv-x="473" 
d="M237 443q-43 0 -65.5 -35t-23 -80t9 -87t25.5 -56q67 0 106 71q34 65 19 127q-15 60 -71 60zM434 89q3 3 6.5 2.5t6 -4t-0.5 -7.5q-19 -37 -72 -63t-123 -26q-49 0 -89.5 16.5t-67 44t-44.5 63t-22 74.5t0 78.5t22.5 75t45 63t67.5 44t90 16.5q86 0 138 -43t52 -102
q0 -50 -40 -85.5t-96 -51t-118 -15.5q3 -5 8 -13t21.5 -29t35 -37t46.5 -29t57 -13q47 0 77 41zM346 630l-103 -117h-32l55 117h80z" />
    <glyph glyph-name="ecircumflex" unicode="&#xea;" horiz-adv-x="473" 
d="M237 443q-43 0 -65.5 -35t-23 -80t9 -87t25.5 -56q67 0 106 71q34 65 19 127q-15 60 -71 60zM434 89q3 3 6.5 2.5t6 -4t-0.5 -7.5q-19 -37 -72 -63t-123 -26q-49 0 -89.5 16.5t-67 44t-44.5 63t-22 74.5t0 78.5t22.5 75t45 63t67.5 44t90 16.5q86 0 138 -43t52 -102
q0 -50 -40 -85.5t-96 -51t-118 -15.5q3 -5 8 -13t21.5 -29t35 -37t46.5 -29t57 -13q47 0 77 41zM240 596l-50 -84h-50l72 118h56l72 -118h-50z" />
    <glyph glyph-name="edieresis" unicode="&#xeb;" horiz-adv-x="473" 
d="M237 443q-43 0 -65.5 -35t-23 -80t9 -87t25.5 -56q67 0 106 71q34 65 19 127q-15 60 -71 60zM434 89q3 3 6.5 2.5t6 -4t-0.5 -7.5q-19 -37 -72 -63t-123 -26q-49 0 -89.5 16.5t-67 44t-44.5 63t-22 74.5t0 78.5t22.5 75t45 63t67.5 44t90 16.5q86 0 138 -43t52 -102
q0 -50 -40 -85.5t-96 -51t-118 -15.5q3 -5 8 -13t21.5 -29t35 -37t46.5 -29t57 -13q47 0 77 41zM300 513q-19 0 -30.5 12.5t-11.5 31.5t12 32t30.5 13t31 -13t12.5 -32t-12.5 -31.5t-31.5 -12.5zM185.5 513q-18.5 0 -30.5 12.5t-12 31.5t12 32t30.5 13t31 -13t12.5 -32
t-12.5 -31.5t-31 -12.5z" />
    <glyph glyph-name="igrave" unicode="&#xec;" horiz-adv-x="230" 
d="M194 14q5 -4 3.5 -9t-8.5 -5h-148q-7 0 -8.5 5t3.5 9q13 9 13 35v321v4.5t-1.5 3.5t-4.5 1q-9 -1 -11 8.5t7 13.5q71 34 122 54q10 3 15 0t5 -10v-395q0 -26 13 -36zM165 513h-32l-102 117h80z" />
    <glyph glyph-name="iacute" unicode="&#xed;" horiz-adv-x="231" 
d="M181 50q0 -26 13 -36q5 -4 3.5 -9t-7.5 -5h-149q-6 0 -8 5t3 9q13 9 13 35v321v4.5t-1.5 3.5t-4.5 1q-9 -1 -11 8.5t7 13.5q72 34 122 54q11 3 15.5 0t4.5 -10v-395zM211 630l-102 -117h-32l55 117h79z" />
    <glyph glyph-name="icircumflex" unicode="&#xee;" horiz-adv-x="230" 
d="M181 50q0 -26 13 -36q5 -4 3.5 -9t-8.5 -5h-148q-7 0 -8.5 5t3.5 9q13 9 13 35v321v4.5t-1.5 3.5t-4.5 1q-9 -1 -11 8.5t7 13.5q72 34 122 54q10 3 15 0t5 -10v-395zM114 597l-49 -84h-51l72 117h57l72 -117h-51z" />
    <glyph glyph-name="idieresis" unicode="&#xef;" horiz-adv-x="231" 
d="M181 50q0 -26 13 -36q5 -4 3.5 -9t-8.5 -5h-148q-7 0 -8.5 5t3.5 9q13 9 13 35v321v4.5t-1.5 3.5t-4.5 1q-9 -1 -11 8.5t7 13.5q72 34 122 54q10 3 15 0t5 -10v-395zM102 557q0 -19 -12.5 -31.5t-31 -12.5t-30.5 12.5t-12 31.5t12 32t30.5 13t31 -13t12.5 -32zM173.5 602
q18.5 0 31 -13t12.5 -32t-12.5 -31.5t-31.5 -12.5t-30.5 12.5t-11.5 31.5t12 32t30.5 13z" />
    <glyph glyph-name="ntilde" unicode="&#xf1;" horiz-adv-x="495" 
d="M460 14q5 -4 3.5 -9t-8.5 -5h-148q-7 0 -8.5 5t3.5 9q13 10 13 36v288q0 74 -57 74q-39 0 -76 -39v-323q0 -26 13 -36q5 -4 3.5 -9t-8.5 -5h-149q-6 0 -7.5 5t3.5 9q13 10 13 36v356q0 27 -13 37q-5 3 -3.5 8.5t7.5 5.5h108q14 0 23.5 -9.5t9.5 -23.5v-27q60 69 151 69
q50 0 82 -32.5t32 -74.5v-309q0 -26 13 -36zM193 556q-14 0 -27 -8t-19 -15l-6 -8v47q2 3 6.5 7t20.5 10.5t36 6.5t51 -14t50 -14q10 0 23 7t20 14l8 7v-45q-17 -14 -28.5 -18t-36.5 -4q-16 0 -49 13.5t-49 13.5z" />
    <glyph glyph-name="ograve" unicode="&#xf2;" horiz-adv-x="505" 
d="M346 30q31 14 25 84.5t-44.5 156t-88 136t-80 36.5t-25 -84.5t44.5 -156t88 -136t80 -36.5zM456.5 329q41.5 -91 11 -183t-115 -130t-173.5 -0.5t-130.5 128.5t-11 182.5t115 130t173.5 1t130.5 -128.5zM277 522h-32l-102 117h80z" />
    <glyph glyph-name="oacute" unicode="&#xf3;" horiz-adv-x="505" 
d="M346 30q31 14 25 84.5t-44.5 156t-88 136t-80 36.5t-25 -84.5t44.5 -156t88 -136t80 -36.5zM456.5 329q41.5 -91 11 -183t-115 -130t-173.5 -0.5t-130.5 128.5t-11 182.5t115 130t173.5 1t130.5 -128.5zM365 639l-103 -117h-32l55 117h80z" />
    <glyph glyph-name="ocircumflex" unicode="&#xf4;" horiz-adv-x="505" 
d="M346 30q31 14 25 84.5t-44.5 156t-88 136t-80 36.5t-25 -84.5t44.5 -156t88 -136t80 -36.5zM456.5 329q41.5 -91 11 -183t-115 -130t-173.5 -0.5t-130.5 128.5t-11 182.5t115 130t173.5 1t130.5 -128.5zM252 606l-49 -84h-51l72 117h57l72 -117h-51z" />
    <glyph glyph-name="otilde" unicode="&#xf5;" horiz-adv-x="505" 
d="M346 30q31 14 25 84.5t-44.5 156t-88 136t-80 36.5t-25 -84.5t44.5 -156t88 -136t80 -36.5zM456.5 329q41.5 -91 11 -183t-115 -130t-173.5 -0.5t-130.5 128.5t-11 182.5t115 130t173.5 1t130.5 -128.5zM197 565q-14 0 -27 -8t-19 -15l-6 -8v47q2 3 6.5 7t20.5 10.5
t36 6.5t51 -14t50 -14q10 0 22.5 7t20.5 14l8 7v-45q-17 -14 -28.5 -18t-36.5 -4q-16 0 -49 13.5t-49 13.5z" />
    <glyph glyph-name="odieresis" unicode="&#xf6;" horiz-adv-x="505" 
d="M346 30q31 14 25 84.5t-44.5 156t-88 136t-80 36.5t-25 -84.5t44.5 -156t88 -136t80 -36.5zM456.5 329q41.5 -91 11 -183t-115 -130t-173.5 -0.5t-130.5 128.5t-11 182.5t115 130t173.5 1t130.5 -128.5zM308 522q-19 0 -30.5 12.5t-11.5 31.5t12 32t30.5 13t31 -13
t12.5 -32t-12.5 -31.5t-31.5 -12.5zM193.5 522q-18.5 0 -30.5 12.5t-12 31.5t12 32t30.5 13t31 -13t12.5 -32t-12.5 -31.5t-31 -12.5z" />
    <glyph glyph-name="oslash" unicode="&#xf8;" horiz-adv-x="510" 
d="M349 31q20 9 24.5 46t-8.5 92t-41 115l-110 -143q36 -59 73.5 -90t61.5 -20zM162 444q-20 -9 -25 -44.5t8 -91t42 -116.5l109 142q-35 60 -72.5 90.5t-61.5 19.5zM413 400q42 -45 58.5 -102.5t8.5 -111t-40.5 -99.5t-84.5 -70q-55 -24 -112 -17t-106 41l-48 -63l-42 32
l51 66q-42 44 -59 102t-8.5 111t41 99.5t84.5 69.5q55 24 111.5 17t105.5 -41l49 64l42 -32z" />
    <glyph glyph-name="ugrave" unicode="&#xf9;" horiz-adv-x="495" 
d="M450 48q9 1 11 -8t-7 -13t-52 -13.5t-71 -13.5q-19 -3 -19 15v40q-1 -2 -3.5 -6.5t-13.5 -15.5t-24 -19.5t-37 -15.5t-52 -7q-62 0 -98.5 32t-36.5 75v309q0 26 -13 36q-5 4 -3.5 9t7.5 5h149q7 0 8.5 -5t-3.5 -9q-13 -10 -13 -36v-288q0 -31 17.5 -52.5t49.5 -21.5
q29 0 47.5 19t18.5 48v295q0 26 -13 36q-5 4 -3.5 9t8.5 5h148q7 0 8.5 -5t-3.5 -9q-13 -10 -13 -36v-353q1 -6 6 -6zM267 513h-32l-103 117h80z" />
    <glyph glyph-name="uacute" unicode="&#xfa;" horiz-adv-x="495" 
d="M450 48q9 1 11 -8t-7 -13t-52 -13.5t-71 -13.5q-19 -3 -19 15v40q-1 -2 -3.5 -6.5t-13.5 -15.5t-24 -19.5t-37 -15.5t-52 -7q-62 0 -98.5 32t-36.5 75v309q0 26 -13 36q-5 4 -3.5 9t7.5 5h149q7 0 8.5 -5t-3.5 -9q-13 -10 -13 -36v-288q0 -31 17.5 -52.5t49.5 -21.5
q29 0 47.5 19t18.5 48v295q0 26 -13 36q-5 4 -3.5 9t8.5 5h148q7 0 8.5 -5t-3.5 -9q-13 -10 -13 -36v-353q1 -6 6 -6zM335 630l-102 -117h-32l55 117h79z" />
    <glyph glyph-name="ucircumflex" unicode="&#xfb;" horiz-adv-x="495" 
d="M450 49q9 1 11 -8.5t-7 -13.5t-52 -13.5t-71 -13.5q-19 -3 -19 15v40q-1 -2 -3.5 -6.5t-13.5 -15.5t-24 -19.5t-37 -15.5t-52 -7q-62 0 -98.5 32.5t-36.5 74.5v309q0 27 -13 36q-5 4 -3.5 9.5t7.5 5.5h149q7 0 8.5 -5.5t-3.5 -9.5q-13 -9 -13 -36v-288q0 -31 17.5 -52.5
t49.5 -21.5q29 0 47.5 19t18.5 48v295q0 27 -13 37q-5 3 -3.5 8.5t8.5 5.5h148q7 0 8.5 -5.5t-3.5 -8.5q-13 -10 -13 -37v-352q1 -7 6 -6zM246 595l-50 -84h-51l72 118h57l72 -118h-51z" />
    <glyph glyph-name="udieresis" unicode="&#xfc;" horiz-adv-x="495" 
d="M450 49q9 1 11 -8.5t-7 -13.5t-52 -13.5t-71 -13.5q-19 -3 -19 15v40q-1 -2 -3.5 -6.5t-13.5 -15.5t-24 -19.5t-37 -15.5t-52 -7q-62 0 -98.5 32.5t-36.5 74.5v309q0 27 -13 36q-5 4 -3.5 9.5t7.5 5.5h149q7 0 8.5 -5.5t-3.5 -9.5q-13 -9 -13 -36v-288q0 -31 17.5 -52.5
t49.5 -21.5q29 0 47.5 19t18.5 48v295q0 27 -13 37q-5 3 -3.5 8.5t8.5 5.5h148q7 0 8.5 -5.5t-3.5 -8.5q-13 -10 -13 -37v-352q1 -7 6 -6zM316.5 511q-18.5 0 -30.5 12.5t-12 32.5q0 19 12 32t30.5 13t31 -13t12.5 -32q0 -20 -12.5 -32.5t-31 -12.5zM202 511q-19 0 -31 12.5
t-12 32.5q0 19 12 32t31 13t31.5 -13t12.5 -32q0 -20 -12.5 -32.5t-31.5 -12.5z" />
    <glyph glyph-name="yacute" unicode="&#xfd;" horiz-adv-x="417" 
d="M398 462q4 0 6.5 -2.5t2.5 -6.5q-2 -17 -11 -46.5t-17.5 -51.5t-21 -53t-14.5 -37q-9 -24 -62.5 -161t-55.5 -142q-30 -81 -56.5 -111.5t-77.5 -30.5q-35 0 -86 13.5t-84 26.5l-33 13l40 127l11 -16.5t27.5 -36t40.5 -45.5t47 -36t49 -16q12 0 22.5 3t18 7t15.5 13.5
t12.5 14.5t11.5 19t9 18.5t9 21t8 18.5q-131 327 -156 398q-5 15 -15 33t-20 34t-12 19q-2 4 0.5 8.5t7.5 4.5h113q17 0 30.5 -9t18.5 -24l103 -284q11 29 31 83q17 43 11 90.5t-17.5 80.5t-24.5 49q-3 4 -2 9t6 5h115zM333 634l-102 -118h-32l55 118h79z" />
    <glyph glyph-name="ydieresis" unicode="&#xff;" horiz-adv-x="417" 
d="M398 462q4 0 6.5 -2.5t2.5 -6.5q-2 -17 -11 -46.5t-17.5 -51.5t-21 -53t-14.5 -37q-9 -24 -62.5 -161t-55.5 -142q-30 -81 -56.5 -111.5t-77.5 -30.5q-35 0 -86 13.5t-84 26.5l-33 13l40 127l11 -16.5t27.5 -36t40.5 -45.5t47 -36t49 -16q12 0 22.5 3t18 7t15.5 13.5
t12.5 14.5t11.5 19t9 18.5t9 21t8 18.5q-131 327 -156 398q-5 15 -15 33t-20 34t-12 19q-2 4 0.5 8.5t7.5 4.5h113q17 0 30.5 -9t18.5 -24l103 -284q11 29 31 83q17 43 11 90.5t-17.5 80.5t-24.5 49q-3 4 -2 9t6 5h115zM286.5 516q-18.5 0 -30.5 12.5t-12 32.5q0 19 12 31.5
t30.5 12.5t31 -12.5t12.5 -31.5q0 -20 -12.5 -32.5t-31 -12.5zM172 516q-19 0 -31 12.5t-12 32.5q0 19 12 31.5t30.5 12.5t31.5 -12.5t13 -31.5q0 -20 -12.5 -32.5t-31.5 -12.5z" />
    <glyph glyph-name="dotlessi" unicode="&#x131;" horiz-adv-x="230" 
d="M193 14q5 -3 3.5 -8.5t-7.5 -5.5h-149q-6 0 -8 5.5t3 8.5q13 10 13 35v321v5t-1.5 3.5t-4.5 1.5q-9 -1 -11 8t7 13q71 34 122 54q11 3 15.5 0t4.5 -9v-395q0 -27 13 -37z" />
    <glyph glyph-name="OE" unicode="&#x152;" horiz-adv-x="1020" 
d="M470 32q67 28 79 131.5t-37.5 221t-132 181t-149.5 35t-79 -131.5t37.5 -221t132 -181t149.5 -35zM1009 46v-28q0 -7 -5 -12t-13 -5h-443q-6 0 -8 5t3 9q13 9 13 35v7q-85 -67 -195 -67q-89 0 -166 43.5t-123.5 119t-49.5 164t38 164t115 119t162 43.5q123 0 219 -83v21
q0 26 -13 36q-12 9 5 14h430q8 0 13 -5t5 -13v-27q0 -7 -8 -9t-11 5q-15 25 -48 25h-241v-272h169q33 0 48 25q3 7 11 5.5t8 -8.5v-69q0 -7 -8 -8.5t-11 4.5q-15 25 -48 25h-169v-284h254q33 0 48 25q3 6 11 4.5t8 -8.5z" />
    <glyph glyph-name="oe" unicode="&#x153;" horiz-adv-x="857" 
d="M596 452q-42 0 -64.5 -35t-23.5 -80.5t9 -87t26 -56.5q67 0 105 72q35 65 20 126t-72 61zM371 29q31 14 25 84.5t-44.5 156t-88 136.5t-80 37t-25 -84.5t44.5 -156t88 -136.5t80 -37zM438 395q64 79 174 79q87 0 138.5 -42.5t51.5 -101.5q0 -50 -39.5 -86t-95.5 -51
t-118 -15q3 -5 8 -13.5t21.5 -29t34.5 -36.5t46.5 -29.5t56.5 -13.5q48 0 78 42q2 3 6 2.5t6 -4.5t0 -8q-19 -36 -72 -62t-124 -26q-101 0 -163 67q-52 -58 -127 -68.5t-143.5 29t-103.5 115.5q-41 92 -10.5 183.5t115.5 129.5q67 30 138 12.5t122 -73.5z" />
    <glyph glyph-name="Scaron" unicode="&#x160;" horiz-adv-x="510" 
d="M305 389q184 -112 184 -219q0 -76 -64.5 -123t-171.5 -47q-48 0 -90 10.5t-67.5 26t-44.5 30.5t-26 26l-8 11l99 92q0 -4 1.5 -10.5t6.5 -25.5t12 -36.5t19 -38.5t26.5 -36t36.5 -25.5t46 -10.5q35 0 62.5 25t27.5 64q0 22 -10.5 42t-34 41.5t-42.5 35.5t-54 38t-61.5 45
t-53.5 49.5t-41.5 60t-14.5 64.5q0 72 58.5 119.5t134.5 47.5q77 0 135.5 -32.5t93.5 -74.5l-82 -88q-4 8 -12 22t-31 47.5t-45.5 57.5t-52.5 38.5t-56 4.5q-18 -7 -27.5 -21.5t-7.5 -37t16.5 -48.5t50 -59t88.5 -65zM281 674h-56l-72 117h50l50 -84l50 84h50z" />
    <glyph glyph-name="scaron" unicode="&#x161;" horiz-adv-x="422" 
d="M331 223q33 -23 49.5 -53.5t12.5 -60.5t-23.5 -56t-61.5 -42t-98 -16q-34 0 -65.5 9.5t-53 23t-38 27.5t-23.5 23l-8 10l78 83q0 -3 1 -9t5.5 -23t10 -32.5t16.5 -34.5t24 -32.5t32.5 -23t41.5 -9.5q32 0 46 21t5 50t-38 50q-24 17 -76 54.5t-70 49.5q-39 28 -52.5 69
t-2 79t53.5 65t104 27q35 0 68.5 -8.5t55.5 -20t39 -23.5t25 -20l8 -8l-64 -85q-1 6 -4.5 16.5t-16.5 37t-27.5 46.5t-38.5 36.5t-51 16.5q-33 0 -50 -23.5t-8.5 -55.5t39.5 -53q20 -13 79 -53.5t76 -51.5zM238 514h-57l-72 118h51l49 -85l50 85h51z" />
    <glyph glyph-name="Ydieresis" unicode="&#x178;" horiz-adv-x="515" 
d="M322 52q0 -26 13 -36q5 -4 3.5 -9t-8.5 -5h-148q-7 0 -8.5 5t3.5 9q13 9 13 35v287q-116 182 -139.5 216.5t-50.5 60.5q-5 5 -4 11.5t7 6.5h162q8 0 10.5 -5.5t0.5 -10.5q-4 -12 20 -53t125 -201q26 29 43 71.5t23 79.5t5 66.5t-9 39.5q-3 4 -2 8.5t7 4.5h56.5h62.5
q9 0 9 -9q0 -35 -66 -127.5t-128 -158.5v-286zM313 669q-19 0 -31 12.5t-12 31.5t12 32t30.5 13t31.5 -13t13 -32t-12.5 -31.5t-31.5 -12.5zM198 669q-19 0 -31 12.5t-12 31.5t12 32t31 13t31.5 -13t12.5 -32t-12.5 -31.5t-31.5 -12.5z" />
    <glyph glyph-name="Zcaron" unicode="&#x17d;" horiz-adv-x="524" 
d="M502 634q8 0 11.5 -6.5t-0.5 -13.5l-329 -588h255q33 0 47 25q4 6 12 4.5t8 -8.5v-27q0 -8 -5.5 -13t-12.5 -5h-463q-11 0 -16.5 10t0.5 19l333 579h-234q-33 0 -48 -26q-3 -6 -11 -4.5t-8 8.5v28q0 7 5 12.5t13 5.5h443zM289 668h-57l-72 118h51l50 -85l49 85h51z" />
    <glyph glyph-name="zcaron" unicode="&#x17e;" horiz-adv-x="462" 
d="M436 457q8 0 11.5 -6.5t0.5 -13.5l-259 -413h174q33 0 47 26q4 6 12 4.5t8 -8.5v-28q0 -7 -5.5 -12.5t-12.5 -5.5h-382q-11 0 -16.5 10t0.5 19l262 404h-163q-33 0 -47 -25q-4 -7 -12 -5.5t-8 9.5v27q0 8 5 13t13 5h372zM259 510h-57l-72 118h50l50 -84l50 84h51z" />
    <glyph glyph-name="endash" unicode="&#x2013;" horiz-adv-x="481" 
d="M451 200h-421v88h421v-88z" />
    <glyph glyph-name="emdash" unicode="&#x2014;" horiz-adv-x="569" 
d="M536 200h-504v105h504v-105z" />
    <glyph glyph-name="quoteleft" unicode="&#x2018;" horiz-adv-x="192" 
d="M99 621q26 0 43 -16t17 -43q0 -25 -17 -43.5t-43 -18.5q-29 0 -47.5 19t-18.5 54q0 61 51 108l9 -7q-6 -8 -10 -20t-0.5 -22.5t16.5 -10.5z" />
    <glyph glyph-name="quoteright" unicode="&#x2019;" horiz-adv-x="189" 
d="M90 681q29 0 47.5 -19t18.5 -54q0 -61 -51 -108l-9 6q6 9 10 21t0.5 22.5t-16.5 10.5q-26 0 -43 16t-17 42t17.5 44.5t42.5 18.5z" />
    <glyph glyph-name="quotesinglbase" unicode="&#x201a;" horiz-adv-x="191" 
d="M92 121q29 0 47.5 -19t18.5 -54q0 -61 -51 -108l-9 6q6 9 10 21t0.5 22.5t-16.5 10.5q-26 0 -43 16t-17 42t17.5 44.5t42.5 18.5z" />
    <glyph glyph-name="quotedblleft" unicode="&#x201c;" horiz-adv-x="338" 
d="M246 621q26 0 43 -16t17 -43q0 -25 -17.5 -43.5t-42.5 -18.5q-30 0 -48 19t-18 54q0 61 50 108l10 -7q-7 -8 -10.5 -20t0 -22.5t16.5 -10.5zM99 621q26 0 43 -16t17 -43q0 -25 -17 -43.5t-43 -18.5q-29 0 -47.5 19t-18.5 54q0 61 51 108l9 -7q-6 -8 -10 -20t-0.5 -22.5
t16.5 -10.5z" />
    <glyph glyph-name="quotedblright" unicode="&#x201d;" horiz-adv-x="335" 
d="M90 681q29 0 47.5 -19t18.5 -54q0 -61 -51 -108l-9 6q6 9 10 21t0.5 22.5t-16.5 10.5q-26 0 -43 16t-17 42t17.5 44.5t42.5 18.5zM236 681q30 0 48.5 -19t18.5 -54q0 -61 -51 -108l-10 6q7 9 10.5 21t0 22.5t-16.5 10.5q-26 0 -43 16t-17 42t17.5 44.5t42.5 18.5z" />
    <glyph glyph-name="quotedblbase" unicode="&#x201e;" horiz-adv-x="337" 
d="M92 121q29 0 47.5 -19t18.5 -54q0 -61 -51 -108l-9 6q6 9 10 21t0.5 22.5t-16.5 10.5q-26 0 -43 16t-17 42t17.5 44.5t42.5 18.5zM238 121q30 0 48.5 -19t18.5 -54q0 -61 -51 -108l-10 6q7 9 10.5 21t0 22.5t-16.5 10.5q-26 0 -43 16t-17 42t17.5 44.5t42.5 18.5z" />
    <glyph glyph-name="dagger" unicode="&#x2020;" horiz-adv-x="455" 
d="M272 537h153v-91h-153v-546h-91v546h-152v91h152v174h91v-174z" />
    <glyph glyph-name="bullet" unicode="&#x2022;" horiz-adv-x="266" 
d="M131 402q43 0 71.5 -29t28.5 -72q0 -44 -28.5 -72.5t-71.5 -28.5q-42 0 -69 28t-27 73q0 43 27 72t69 29z" />
    <glyph glyph-name="guilsinglleft" unicode="&#x2039;" horiz-adv-x="321" 
d="M289 436l-141 -167l141 -169h-113l-142 166q-2 1 -2 2q0 2 2 4l144 164h111z" />
    <glyph glyph-name="guilsinglright" unicode="&#x203a;" horiz-adv-x="321" 
d="M287 271q2 -2 2 -3t-2 -3l-144 -165h-111l141 168l-141 168h113z" />
    <glyph glyph-name="Euro" unicode="&#x20ac;" horiz-adv-x="626" 
d="M483 70q19 0 34 3.5t25 8t13 5.5q10 0 14 -11t-3 -19q-29 -28 -74 -45t-92 -17q-109 0 -191 74.5t-101 190.5h-73v50h68q-1 8 -1 12q0 19 3 42h-70v50h78q27 116 100 177.5t182 61.5q16 0 34 -2t45 -10.5t49 -22.5t41.5 -41t27.5 -63l-98 -29q-2 18 -6.5 38t-14 47
t-28 44.5t-43.5 17.5q-47 0 -85.5 -65.5t-38.5 -152.5h193v-50h-196q-1 -26 0 -54h196v-50h-190q13 -92 72 -141t130 -49z" />
    </font>
</defs>
</svg>
